<?xml version="1.0" encoding="utf-8"?>
<!-- Generator: Adobe Illustrator 23.0.2, SVG Export Plug-In . SVG Version: 6.00 Build 0)  -->
<!DOCTYPE svg PUBLIC "-//W3C//DTD SVG 1.1//EN" "http://www.w3.org/Graphics/SVG/1.1/DTD/svg11.dtd" [
	<!ENTITY ns_flows "http://ns.adobe.com/Flows/1.0/">
	<!ENTITY ns_extend "http://ns.adobe.com/Extensibility/1.0/">
	<!ENTITY ns_ai "http://ns.adobe.com/AdobeIllustrator/10.0/">
	<!ENTITY ns_graphs "http://ns.adobe.com/Graphs/1.0/">
	<!ENTITY ns_vars "http://ns.adobe.com/Variables/1.0/">
	<!ENTITY ns_imrep "http://ns.adobe.com/ImageReplacement/1.0/">
	<!ENTITY ns_sfw "http://ns.adobe.com/SaveForWeb/1.0/">
	<!ENTITY ns_custom "http://ns.adobe.com/GenericCustomNamespace/1.0/">
	<!ENTITY ns_adobe_xpath "http://ns.adobe.com/XPath/1.0/">
]>
<svg version="1.1" xmlns:x="&ns_extend;" xmlns:i="&ns_ai;" xmlns:graph="&ns_graphs;"
	 xmlns="http://www.w3.org/2000/svg" xmlns:xlink="http://www.w3.org/1999/xlink" xmlns:a="http://ns.adobe.com/AdobeSVGViewerExtensions/3.0/"
	 x="0px" y="0px" viewBox="0 0 750 650" enable-background="new 0 0 750 650" xml:space="preserve">
<metadata>
	<sfw  xmlns="&ns_sfw;">
		<slices></slices>
		<sliceSourceBounds  bottomLeftOrigin="true" height="5675" width="8412.366" x="-6918.366" y="-925"></sliceSourceBounds>
	</sfw>
</metadata>
<g id="FILL-BACKGROUND">
	<rect fill="#FFFFFF" width="750" height="650"/>
</g>
<g id="N-DIMENSIONS">
	<g>
		<g id="POLYLINE_424_">
			
				<line fill="none" stroke="#E74C3C" stroke-width="2" stroke-linecap="round" stroke-linejoin="round" stroke-miterlimit="10" x1="635.345" y1="101.029" x2="421" y2="101.029"/>
		</g>
		<g id="LINE_31_">
			
				<line fill="none" stroke="#E74C3C" stroke-width="2" stroke-linecap="round" stroke-linejoin="round" stroke-miterlimit="10" x1="289.186" y1="101.029" x2="72.844" y2="101.029"/>
		</g>
		<g id="POLYLINE_423_">
			
				<polyline fill="none" stroke="#E74C3C" stroke-width="2" stroke-linecap="round" stroke-linejoin="round" stroke-miterlimit="10" points="
				79.456,107.64 72.844,101.029 79.456,94.417 			"/>
		</g>
		<g id="POLYLINE_422_">
			
				<polyline fill="none" stroke="#E74C3C" stroke-width="2" stroke-linecap="round" stroke-linejoin="round" stroke-miterlimit="10" points="
				628.734,94.417 635.345,101.029 628.734,107.64 			"/>
		</g>
		<g id="MTEXT_36_">
			<g>
				<g>
					<path fill="#E74C3C" d="M302.131,107.224c-0.066-0.078-0.1-0.171-0.1-0.279l0.036-0.161l4.5-10.53h-5.94
						c-0.12,0-0.219-0.039-0.297-0.117s-0.116-0.177-0.116-0.297v-0.666c0-0.132,0.035-0.237,0.107-0.315
						c0.072-0.077,0.174-0.116,0.306-0.116h7.345c0.132,0,0.233,0.039,0.306,0.116c0.072,0.078,0.108,0.184,0.108,0.315v0.612
						c0,0.216-0.049,0.449-0.145,0.702l-4.446,10.403c-0.06,0.133-0.126,0.24-0.197,0.324c-0.072,0.084-0.175,0.126-0.307,0.126
						h-0.899C302.283,107.341,302.196,107.302,302.131,107.224z"/>
					<path fill="#E74C3C" d="M309.87,107.224c-0.078-0.078-0.117-0.177-0.117-0.297v-0.54c0-0.275,0.15-0.54,0.45-0.792l3.924-3.906
						c0.888-0.756,1.5-1.374,1.836-1.854s0.504-0.99,0.504-1.53c0-0.708-0.197-1.263-0.594-1.665
						c-0.396-0.401-0.972-0.603-1.728-0.603c-0.721,0-1.29,0.21-1.71,0.63c-0.421,0.42-0.679,0.984-0.774,1.691
						c-0.024,0.133-0.084,0.234-0.18,0.307c-0.097,0.072-0.192,0.107-0.288,0.107h-0.864c-0.108,0-0.198-0.035-0.27-0.107
						c-0.072-0.072-0.108-0.156-0.108-0.252c0.023-0.636,0.195-1.251,0.513-1.846c0.318-0.594,0.789-1.079,1.413-1.458
						c0.624-0.378,1.38-0.566,2.269-0.566c1.344,0,2.354,0.351,3.032,1.053s1.018,1.593,1.018,2.673
						c0,0.756-0.184,1.438-0.549,2.043c-0.366,0.606-0.939,1.245-1.72,1.917l-3.546,3.601h5.67c0.132,0,0.234,0.036,0.307,0.107
						c0.071,0.072,0.107,0.175,0.107,0.307v0.684c0,0.12-0.039,0.219-0.117,0.297s-0.177,0.117-0.297,0.117h-7.884
						C310.047,107.341,309.948,107.302,309.87,107.224z"/>
					<path fill="#E74C3C" d="M320.472,97.873c-0.054-0.072-0.069-0.162-0.045-0.271l0.396-2.52c0.048-0.348,0.216-0.522,0.504-0.522
						h1.151c0.084,0,0.153,0.03,0.207,0.09c0.055,0.061,0.081,0.133,0.081,0.217c0,0.12-0.018,0.216-0.054,0.288l-0.937,2.43
						c-0.06,0.132-0.126,0.231-0.197,0.297c-0.072,0.066-0.181,0.099-0.324,0.099h-0.558
						C320.601,97.98,320.525,97.944,320.472,97.873z M323.298,97.873c-0.054-0.072-0.069-0.162-0.045-0.271l0.396-2.52
						c0.048-0.348,0.217-0.522,0.504-0.522h1.152c0.084,0,0.153,0.03,0.207,0.09c0.054,0.061,0.081,0.133,0.081,0.217
						c0,0.12-0.018,0.216-0.054,0.288l-0.937,2.43c-0.06,0.132-0.126,0.231-0.197,0.297c-0.072,0.066-0.181,0.099-0.324,0.099
						h-0.559C323.427,97.98,323.352,97.944,323.298,97.873z"/>
					<path fill="#E74C3C" d="M332.181,110.968c-0.072-0.078-0.108-0.177-0.108-0.297V91.627c0-0.12,0.036-0.219,0.108-0.297
						s0.168-0.117,0.288-0.117h0.666c0.12,0,0.219,0.039,0.297,0.117s0.117,0.177,0.117,0.297v19.044
						c0,0.12-0.039,0.219-0.117,0.297s-0.177,0.117-0.297,0.117h-0.666C332.349,111.085,332.253,111.046,332.181,110.968z"/>
					<path fill="#E74C3C" d="M343.988,107.224c-0.071-0.078-0.107-0.177-0.107-0.297V96.774l-3.024,2.322
						c-0.084,0.072-0.174,0.108-0.27,0.108c-0.108,0-0.21-0.061-0.307-0.181l-0.432-0.558c-0.061-0.084-0.09-0.168-0.09-0.252
						c0-0.132,0.06-0.24,0.18-0.324l3.906-3.023c0.132-0.084,0.288-0.126,0.468-0.126h0.846c0.12,0,0.219,0.039,0.298,0.116
						c0.077,0.078,0.116,0.178,0.116,0.298v11.771c0,0.12-0.039,0.219-0.116,0.297c-0.079,0.078-0.178,0.117-0.298,0.117h-0.882
						C344.156,107.341,344.061,107.302,343.988,107.224z"/>
					<path fill="#E74C3C" d="M350.225,107.062c-0.714-0.306-1.269-0.747-1.665-1.322c-0.396-0.576-0.594-1.248-0.594-2.017
						c0-0.708,0.177-1.329,0.531-1.863c0.354-0.533,0.831-0.944,1.431-1.232c-0.479-0.276-0.852-0.639-1.116-1.089
						c-0.264-0.45-0.396-0.981-0.396-1.594c0-1.044,0.39-1.868,1.17-2.475c0.78-0.605,1.806-0.909,3.078-0.909
						c1.271,0,2.295,0.301,3.069,0.9c0.773,0.6,1.16,1.428,1.16,2.483c0,0.601-0.132,1.125-0.396,1.575s-0.63,0.819-1.098,1.107
						c0.6,0.288,1.076,0.699,1.431,1.232c0.354,0.534,0.531,1.161,0.531,1.882c0,0.768-0.198,1.437-0.595,2.007
						c-0.396,0.57-0.951,1.008-1.665,1.313c-0.714,0.307-1.526,0.459-2.438,0.459S350.938,107.368,350.225,107.062z
						 M354.797,105.469c0.57-0.432,0.855-1.008,0.855-1.728c0-0.721-0.285-1.297-0.855-1.729s-1.281-0.647-2.133-0.647
						c-0.864,0-1.581,0.216-2.151,0.647c-0.569,0.432-0.854,1.008-0.854,1.729c0,0.72,0.285,1.296,0.854,1.728
						c0.57,0.432,1.287,0.648,2.151,0.648C353.516,106.117,354.227,105.9,354.797,105.469z M354.518,99.421
						c0.505-0.36,0.757-0.84,0.757-1.44c0-0.611-0.25-1.101-0.747-1.467c-0.498-0.366-1.119-0.549-1.863-0.549
						c-0.756,0-1.38,0.183-1.872,0.549s-0.738,0.855-0.738,1.467c0,0.612,0.246,1.102,0.738,1.468s1.116,0.549,1.872,0.549
						C353.396,99.973,354.014,99.781,354.518,99.421z"/>
					<path fill="#E74C3C" d="M359.369,107.224c-0.078-0.078-0.117-0.177-0.117-0.297v-0.54c0-0.275,0.15-0.54,0.45-0.792
						l3.924-3.906c0.888-0.756,1.5-1.374,1.836-1.854s0.504-0.99,0.504-1.53c0-0.708-0.197-1.263-0.594-1.665
						c-0.396-0.401-0.972-0.603-1.728-0.603c-0.721,0-1.29,0.21-1.71,0.63c-0.421,0.42-0.679,0.984-0.774,1.691
						c-0.024,0.133-0.084,0.234-0.18,0.307c-0.097,0.072-0.192,0.107-0.288,0.107h-0.864c-0.108,0-0.198-0.035-0.27-0.107
						c-0.072-0.072-0.108-0.156-0.108-0.252c0.023-0.636,0.195-1.251,0.513-1.846c0.318-0.594,0.789-1.079,1.413-1.458
						c0.624-0.378,1.38-0.566,2.269-0.566c1.344,0,2.354,0.351,3.032,1.053s1.018,1.593,1.018,2.673
						c0,0.756-0.184,1.438-0.549,2.043c-0.366,0.606-0.939,1.245-1.72,1.917l-3.546,3.601h5.67c0.132,0,0.234,0.036,0.307,0.107
						c0.071,0.072,0.107,0.175,0.107,0.307v0.684c0,0.12-0.039,0.219-0.117,0.297s-0.177,0.117-0.297,0.117h-7.884
						C359.546,107.341,359.447,107.302,359.369,107.224z"/>
					<path fill="#E74C3C" d="M370.223,107.224c-0.078-0.078-0.117-0.177-0.117-0.297v-1.242c0-0.119,0.039-0.222,0.117-0.306
						s0.177-0.126,0.297-0.126h1.242c0.12,0,0.219,0.042,0.297,0.126s0.117,0.187,0.117,0.306v1.242c0,0.12-0.039,0.219-0.117,0.297
						s-0.177,0.117-0.297,0.117h-1.242C370.399,107.341,370.301,107.302,370.223,107.224z"/>
					<path fill="#E74C3C" d="M375.804,107.224c-0.066-0.078-0.1-0.171-0.1-0.279c0-0.083,0.024-0.161,0.072-0.233l2.771-3.853
						c-0.287,0.072-0.624,0.108-1.008,0.108c-0.864-0.012-1.62-0.213-2.268-0.603c-0.648-0.391-1.144-0.9-1.485-1.53
						s-0.513-1.305-0.513-2.025c0-0.72,0.171-1.403,0.513-2.052s0.853-1.176,1.53-1.584s1.497-0.612,2.457-0.612
						s1.782,0.198,2.466,0.595c0.684,0.396,1.2,0.915,1.548,1.557s0.522,1.329,0.522,2.061c0,0.66-0.117,1.242-0.352,1.746
						c-0.233,0.504-0.543,1.026-0.927,1.566l-3.492,4.896c-0.084,0.108-0.165,0.195-0.243,0.262
						c-0.078,0.065-0.188,0.099-0.333,0.099h-0.899C375.956,107.341,375.869,107.302,375.804,107.224z M379.196,101.203
						c0.432-0.229,0.774-0.549,1.026-0.963s0.378-0.892,0.378-1.432c0-0.552-0.126-1.037-0.378-1.458
						c-0.252-0.42-0.595-0.744-1.026-0.972s-0.906-0.342-1.422-0.342c-0.504,0-0.97,0.114-1.396,0.342s-0.765,0.552-1.017,0.972
						c-0.252,0.421-0.378,0.906-0.378,1.458c0,0.54,0.126,1.018,0.378,1.432s0.588,0.734,1.008,0.963
						c0.42,0.228,0.888,0.342,1.404,0.342C378.29,101.545,378.765,101.431,379.196,101.203z"/>
					<path fill="#E74C3C" d="M389.726,106.432c-0.72-0.726-1.098-1.743-1.134-3.051l-0.019-0.72l0.019-0.721
						c0.036-1.308,0.414-2.324,1.134-3.051c0.72-0.726,1.722-1.089,3.006-1.089c0.864,0,1.593,0.153,2.188,0.459
						c0.594,0.306,1.037,0.688,1.332,1.143c0.294,0.457,0.452,0.912,0.477,1.368c0.012,0.108-0.026,0.204-0.117,0.288
						c-0.09,0.084-0.188,0.126-0.297,0.126h-0.792c-0.12,0-0.21-0.026-0.27-0.081c-0.061-0.054-0.12-0.152-0.181-0.297
						c-0.216-0.588-0.513-1.005-0.891-1.251s-0.854-0.369-1.431-0.369c-0.756,0-1.356,0.234-1.801,0.702
						c-0.443,0.468-0.684,1.183-0.72,2.143l-0.018,0.63l0.018,0.63c0.036,0.96,0.276,1.674,0.72,2.142
						c0.444,0.468,1.045,0.702,1.801,0.702c0.588,0,1.067-0.123,1.439-0.369s0.666-0.663,0.882-1.251
						c0.061-0.144,0.12-0.243,0.181-0.297c0.06-0.054,0.149-0.081,0.27-0.081h0.792c0.108,0,0.207,0.042,0.297,0.126
						c0.091,0.084,0.129,0.18,0.117,0.288c-0.024,0.444-0.183,0.895-0.477,1.35c-0.295,0.457-0.738,0.841-1.332,1.152
						c-0.595,0.312-1.323,0.468-2.188,0.468C391.447,107.521,390.445,107.158,389.726,106.432z"/>
					<path fill="#E74C3C" d="M399.004,107.224c-0.078-0.078-0.117-0.177-0.117-0.297v-8.532c0-0.119,0.039-0.219,0.117-0.297
						s0.177-0.117,0.297-0.117h0.756c0.12,0,0.217,0.039,0.288,0.117c0.072,0.078,0.108,0.178,0.108,0.297v0.612
						c0.648-0.804,1.523-1.206,2.628-1.206c1.32,0,2.256,0.552,2.808,1.656c0.288-0.504,0.699-0.906,1.233-1.206
						s1.131-0.45,1.791-0.45c0.983,0,1.788,0.336,2.412,1.008c0.624,0.673,0.936,1.645,0.936,2.916v5.202
						c0,0.12-0.039,0.219-0.116,0.297c-0.078,0.078-0.178,0.117-0.298,0.117h-0.773c-0.12,0-0.219-0.039-0.297-0.117
						s-0.117-0.177-0.117-0.297v-5.04c0-0.96-0.198-1.646-0.594-2.061c-0.396-0.414-0.918-0.621-1.566-0.621
						c-0.576,0-1.071,0.213-1.485,0.639c-0.413,0.426-0.62,1.107-0.62,2.043v5.04c0,0.12-0.039,0.219-0.117,0.297
						s-0.178,0.117-0.297,0.117h-0.792c-0.12,0-0.22-0.039-0.298-0.117s-0.116-0.177-0.116-0.297v-5.04
						c0-0.947-0.207-1.632-0.621-2.052s-0.927-0.63-1.539-0.63c-0.576,0-1.071,0.21-1.485,0.63s-0.621,1.098-0.621,2.034v5.058
						c0,0.12-0.039,0.219-0.117,0.297s-0.177,0.117-0.297,0.117h-0.792C399.181,107.341,399.082,107.302,399.004,107.224z"/>
				</g>
			</g>
		</g>
	</g>
	<g>
		<g id="POLYLINE_421_">
			
				<line fill="none" stroke="#E74C3C" stroke-width="2" stroke-linecap="round" stroke-linejoin="round" stroke-miterlimit="10" x1="254.345" y1="341.029" x2="240" y2="341.029"/>
		</g>
		<g id="LINE_30_">
			
				<line fill="none" stroke="#E74C3C" stroke-width="2" stroke-linecap="round" stroke-linejoin="round" stroke-miterlimit="10" x1="295" y1="341.029" x2="280.844" y2="341.029"/>
		</g>
		<g id="POLYLINE_420_">
			
				<polyline fill="none" stroke="#E74C3C" stroke-width="2" stroke-linecap="round" stroke-linejoin="round" stroke-miterlimit="10" points="
				287.456,347.64 280.844,341.029 287.456,334.417 			"/>
		</g>
		<g id="POLYLINE_419_">
			
				<polyline fill="none" stroke="#E74C3C" stroke-width="2" stroke-linecap="round" stroke-linejoin="round" stroke-miterlimit="10" points="
				247.734,334.417 254.345,341.029 247.734,347.64 			"/>
		</g>
		<g id="MTEXT_35_">
			<g>
				<g>
					<path fill="#E74C3C" d="M216.267,346.224c-0.078-0.078-0.117-0.177-0.117-0.297v-0.54c0-0.275,0.15-0.54,0.45-0.792
						l3.924-3.906c0.888-0.756,1.5-1.374,1.836-1.854s0.504-0.99,0.504-1.53c0-0.708-0.197-1.263-0.594-1.665
						c-0.396-0.401-0.972-0.603-1.728-0.603c-0.721,0-1.29,0.21-1.71,0.63c-0.421,0.42-0.679,0.984-0.774,1.691
						c-0.024,0.133-0.084,0.234-0.18,0.307c-0.097,0.072-0.192,0.107-0.288,0.107h-0.864c-0.108,0-0.198-0.035-0.27-0.107
						c-0.072-0.072-0.108-0.156-0.108-0.252c0.023-0.636,0.195-1.251,0.513-1.846c0.318-0.594,0.789-1.079,1.413-1.458
						c0.624-0.378,1.38-0.566,2.269-0.566c1.344,0,2.354,0.351,3.032,1.053s1.018,1.593,1.018,2.673
						c0,0.756-0.184,1.438-0.549,2.043c-0.366,0.606-0.939,1.245-1.72,1.917l-3.546,3.601h5.67c0.132,0,0.234,0.036,0.307,0.107
						c0.071,0.072,0.107,0.175,0.107,0.307v0.684c0,0.12-0.039,0.219-0.117,0.297s-0.177,0.117-0.297,0.117h-7.884
						C216.443,346.341,216.345,346.302,216.267,346.224z"/>
					<path fill="#E74C3C" d="M226.868,336.873c-0.054-0.072-0.069-0.162-0.045-0.271l0.396-2.52
						c0.048-0.348,0.216-0.522,0.504-0.522h1.151c0.084,0,0.153,0.03,0.207,0.09c0.055,0.061,0.081,0.133,0.081,0.217
						c0,0.12-0.018,0.216-0.054,0.288l-0.937,2.43c-0.06,0.132-0.126,0.231-0.197,0.297c-0.072,0.066-0.181,0.099-0.324,0.099
						h-0.558C226.997,336.98,226.922,336.944,226.868,336.873z M229.694,336.873c-0.054-0.072-0.069-0.162-0.045-0.271l0.396-2.52
						c0.048-0.348,0.217-0.522,0.504-0.522h1.152c0.084,0,0.153,0.03,0.207,0.09c0.054,0.061,0.081,0.133,0.081,0.217
						c0,0.12-0.018,0.216-0.054,0.288l-0.937,2.43c-0.06,0.132-0.126,0.231-0.197,0.297c-0.072,0.066-0.181,0.099-0.324,0.099
						h-0.559C229.823,336.98,229.748,336.944,229.694,336.873z"/>
					<path fill="#E74C3C" d="M194.623,363.635c-0.66-0.324-1.164-0.747-1.513-1.27c-0.348-0.521-0.534-1.083-0.558-1.683v-0.036
						c0-0.096,0.036-0.174,0.107-0.234c0.072-0.06,0.156-0.09,0.253-0.09h0.882c0.252,0,0.414,0.133,0.485,0.396
						c0.181,0.647,0.514,1.131,0.999,1.448c0.486,0.318,1.047,0.478,1.684,0.478c0.815,0,1.494-0.249,2.034-0.747
						c0.539-0.498,0.81-1.185,0.81-2.061c0-0.805-0.271-1.443-0.81-1.918c-0.54-0.474-1.219-0.711-2.034-0.711
						c-0.433,0-0.78,0.055-1.044,0.162c-0.265,0.108-0.534,0.265-0.811,0.469c-0.156,0.12-0.285,0.207-0.387,0.261
						c-0.103,0.054-0.213,0.081-0.333,0.081h-0.864c-0.107,0-0.204-0.039-0.288-0.117s-0.12-0.171-0.107-0.279l0.558-5.994
						c0.036-0.3,0.186-0.449,0.45-0.449h6.228c0.132,0,0.234,0.035,0.307,0.107c0.071,0.072,0.107,0.174,0.107,0.307v0.666
						c0,0.119-0.039,0.216-0.117,0.287c-0.078,0.072-0.177,0.108-0.297,0.108h-5.184l-0.324,3.618
						c0.576-0.408,1.351-0.612,2.322-0.612c0.804,0,1.536,0.159,2.196,0.478c0.659,0.317,1.185,0.782,1.574,1.395
						c0.391,0.612,0.585,1.338,0.585,2.178c0,0.889-0.194,1.653-0.585,2.295c-0.39,0.643-0.93,1.129-1.619,1.458
						c-0.69,0.33-1.479,0.495-2.367,0.495C196.062,364.12,195.282,363.958,194.623,363.635z"/>
					<path fill="#E74C3C" d="M208.896,363.031c-0.72-0.726-1.098-1.743-1.134-3.051l-0.019-0.72l0.019-0.721
						c0.036-1.308,0.414-2.324,1.134-3.051c0.72-0.726,1.722-1.089,3.006-1.089c0.864,0,1.593,0.153,2.188,0.459
						c0.594,0.306,1.037,0.688,1.332,1.143c0.294,0.457,0.452,0.912,0.477,1.368c0.012,0.108-0.026,0.204-0.117,0.288
						c-0.09,0.084-0.188,0.126-0.297,0.126h-0.792c-0.12,0-0.21-0.026-0.27-0.081c-0.061-0.054-0.12-0.152-0.181-0.297
						c-0.216-0.588-0.513-1.005-0.891-1.251s-0.854-0.369-1.431-0.369c-0.756,0-1.356,0.234-1.801,0.702
						c-0.443,0.468-0.684,1.183-0.72,2.143l-0.018,0.63l0.018,0.63c0.036,0.96,0.276,1.674,0.72,2.142
						c0.444,0.468,1.045,0.702,1.801,0.702c0.588,0,1.067-0.123,1.439-0.369s0.666-0.663,0.882-1.251
						c0.061-0.144,0.12-0.243,0.181-0.297c0.06-0.054,0.149-0.081,0.27-0.081h0.792c0.108,0,0.207,0.042,0.297,0.126
						c0.091,0.084,0.129,0.18,0.117,0.288c-0.024,0.444-0.183,0.895-0.477,1.35c-0.295,0.457-0.738,0.841-1.332,1.152
						c-0.595,0.312-1.323,0.468-2.188,0.468C210.618,364.12,209.616,363.758,208.896,363.031z"/>
					<path fill="#E74C3C" d="M218.175,363.823c-0.078-0.078-0.117-0.177-0.117-0.297v-8.532c0-0.119,0.039-0.219,0.117-0.297
						s0.177-0.117,0.297-0.117h0.756c0.12,0,0.217,0.039,0.288,0.117c0.072,0.078,0.108,0.178,0.108,0.297v0.612
						c0.648-0.804,1.523-1.206,2.628-1.206c1.32,0,2.256,0.552,2.808,1.656c0.288-0.504,0.699-0.906,1.233-1.206
						s1.131-0.45,1.791-0.45c0.983,0,1.788,0.336,2.412,1.008c0.624,0.673,0.936,1.645,0.936,2.916v5.202
						c0,0.12-0.039,0.219-0.116,0.297c-0.078,0.078-0.178,0.117-0.298,0.117h-0.773c-0.12,0-0.219-0.039-0.297-0.117
						s-0.117-0.177-0.117-0.297v-5.04c0-0.96-0.198-1.646-0.594-2.061c-0.396-0.414-0.918-0.621-1.566-0.621
						c-0.576,0-1.071,0.213-1.485,0.639c-0.413,0.426-0.62,1.107-0.62,2.043v5.04c0,0.12-0.039,0.219-0.117,0.297
						s-0.178,0.117-0.297,0.117h-0.792c-0.12,0-0.22-0.039-0.298-0.117s-0.116-0.177-0.116-0.297v-5.04
						c0-0.947-0.207-1.632-0.621-2.052s-0.927-0.63-1.539-0.63c-0.576,0-1.071,0.21-1.485,0.63s-0.621,1.098-0.621,2.034v5.058
						c0,0.12-0.039,0.219-0.117,0.297s-0.177,0.117-0.297,0.117h-0.792C218.352,363.94,218.253,363.901,218.175,363.823z"/>
				</g>
			</g>
		</g>
	</g>
	<g>
		<g id="POLYLINE_418_">
			
				<line fill="none" stroke="#E74C3C" stroke-width="2" stroke-linecap="round" stroke-linejoin="round" stroke-miterlimit="10" x1="447.345" y1="260.029" x2="407" y2="260.029"/>
		</g>
		<g id="LINE_29_">
			
				<line fill="none" stroke="#E74C3C" stroke-width="2" stroke-linecap="round" stroke-linejoin="round" stroke-miterlimit="10" x1="303.186" y1="260.029" x2="259.844" y2="260.029"/>
		</g>
		<g id="POLYLINE_417_">
			
				<polyline fill="none" stroke="#E74C3C" stroke-width="2" stroke-linecap="round" stroke-linejoin="round" stroke-miterlimit="10" points="
				266.456,266.64 259.844,260.029 266.456,253.417 			"/>
		</g>
		<g id="POLYLINE_416_">
			
				<polyline fill="none" stroke="#E74C3C" stroke-width="2" stroke-linecap="round" stroke-linejoin="round" stroke-miterlimit="10" points="
				440.734,253.417 447.345,260.029 440.734,266.64 			"/>
		</g>
		<g id="MTEXT_34_">
			<g>
				<g>
					<path fill="#E74C3C" d="M311.69,266.224c-0.078-0.078-0.117-0.177-0.117-0.297v-0.54c0-0.275,0.15-0.54,0.45-0.792l3.924-3.906
						c0.888-0.756,1.5-1.374,1.836-1.854s0.504-0.99,0.504-1.53c0-0.708-0.197-1.263-0.594-1.665
						c-0.396-0.401-0.972-0.603-1.728-0.603c-0.721,0-1.29,0.21-1.71,0.63c-0.421,0.42-0.679,0.984-0.774,1.691
						c-0.024,0.133-0.084,0.234-0.18,0.307c-0.097,0.072-0.192,0.107-0.288,0.107h-0.864c-0.108,0-0.198-0.035-0.27-0.107
						c-0.072-0.072-0.108-0.156-0.108-0.252c0.023-0.636,0.195-1.251,0.513-1.846c0.318-0.594,0.789-1.079,1.413-1.458
						c0.624-0.378,1.38-0.566,2.269-0.566c1.344,0,2.354,0.351,3.032,1.053s1.018,1.593,1.018,2.673
						c0,0.756-0.184,1.438-0.549,2.043c-0.366,0.606-0.939,1.245-1.72,1.917l-3.546,3.601h5.67c0.132,0,0.234,0.036,0.307,0.107
						c0.071,0.072,0.107,0.175,0.107,0.307v0.684c0,0.12-0.039,0.219-0.117,0.297s-0.177,0.117-0.297,0.117h-7.884
						C311.867,266.341,311.769,266.302,311.69,266.224z"/>
					<path fill="#E74C3C" d="M327.963,266.224c-0.079-0.078-0.117-0.177-0.117-0.297v-2.628h-5.851c-0.12,0-0.219-0.039-0.297-0.117
						s-0.117-0.177-0.117-0.297v-0.666c0-0.168,0.066-0.348,0.198-0.54l5.418-7.632c0.061-0.096,0.15-0.171,0.271-0.225
						c0.119-0.055,0.252-0.081,0.396-0.081h1.225c0.132,0,0.233,0.035,0.306,0.107s0.107,0.174,0.107,0.307v7.632h1.639
						c0.119,0,0.219,0.039,0.297,0.117s0.117,0.177,0.117,0.297v0.684c0,0.12-0.039,0.219-0.117,0.297s-0.178,0.117-0.297,0.117
						h-1.639v2.628c0,0.12-0.039,0.219-0.116,0.297c-0.078,0.078-0.178,0.117-0.297,0.117h-0.828
						C328.14,266.341,328.04,266.302,327.963,266.224z M323.453,261.823h4.41v-6.265L323.453,261.823z"/>
					<path fill="#E74C3C" d="M333.236,256.873c-0.054-0.072-0.069-0.162-0.045-0.271l0.396-2.52
						c0.048-0.348,0.216-0.522,0.504-0.522h1.151c0.084,0,0.153,0.03,0.207,0.09c0.055,0.061,0.081,0.133,0.081,0.217
						c0,0.12-0.018,0.216-0.054,0.288l-0.937,2.43c-0.06,0.132-0.126,0.231-0.197,0.297c-0.072,0.066-0.181,0.099-0.324,0.099
						h-0.558C333.365,256.98,333.29,256.944,333.236,256.873z M336.062,256.873c-0.054-0.072-0.069-0.162-0.045-0.271l0.396-2.52
						c0.048-0.348,0.217-0.522,0.504-0.522h1.152c0.084,0,0.153,0.03,0.207,0.09c0.054,0.061,0.081,0.133,0.081,0.217
						c0,0.12-0.018,0.216-0.054,0.288l-0.937,2.43c-0.06,0.132-0.126,0.231-0.197,0.297c-0.072,0.066-0.181,0.099-0.324,0.099
						h-0.559C336.191,256.98,336.116,256.944,336.062,256.873z"/>
					<path fill="#E74C3C" d="M344.945,269.968c-0.072-0.078-0.108-0.177-0.108-0.297v-19.044c0-0.12,0.036-0.219,0.108-0.297
						s0.168-0.117,0.288-0.117h0.666c0.12,0,0.219,0.039,0.297,0.117s0.117,0.177,0.117,0.297v19.044
						c0,0.12-0.039,0.219-0.117,0.297s-0.177,0.117-0.297,0.117h-0.666C345.113,270.085,345.018,270.046,344.945,269.968z"/>
					<path fill="#E74C3C" d="M355.105,265.936c-0.702-0.39-1.236-0.915-1.603-1.575c-0.366-0.659-0.549-1.379-0.549-2.159
						c0-1.032,0.414-2.136,1.242-3.312l3.438-4.788c0.013-0.012,0.046-0.054,0.1-0.126s0.123-0.129,0.207-0.171
						s0.18-0.062,0.288-0.062h0.882c0.108,0,0.194,0.039,0.261,0.116c0.066,0.078,0.1,0.172,0.1,0.279
						c0,0.061-0.03,0.139-0.091,0.234l-2.628,3.672c0.312-0.072,0.66-0.108,1.044-0.108c0.876,0,1.647,0.195,2.313,0.585
						c0.666,0.391,1.182,0.906,1.548,1.548c0.366,0.643,0.549,1.348,0.549,2.115c0,0.769-0.183,1.485-0.549,2.151
						s-0.897,1.197-1.593,1.593c-0.696,0.396-1.519,0.594-2.466,0.594C356.638,266.521,355.808,266.326,355.105,265.936z
						 M359.038,264.703c0.444-0.216,0.798-0.537,1.062-0.963c0.264-0.426,0.396-0.939,0.396-1.539c0-0.588-0.135-1.096-0.405-1.521
						c-0.27-0.426-0.627-0.75-1.07-0.972c-0.444-0.222-0.925-0.333-1.44-0.333s-0.996,0.111-1.439,0.333
						c-0.444,0.222-0.799,0.546-1.062,0.972s-0.396,0.934-0.396,1.521c0,0.6,0.132,1.113,0.396,1.539s0.618,0.747,1.062,0.963
						c0.443,0.216,0.924,0.323,1.439,0.323C358.108,265.026,358.594,264.919,359.038,264.703z"/>
					<path fill="#E74C3C" d="M367.12,266.224c-0.071-0.078-0.107-0.177-0.107-0.297v-10.152l-3.024,2.322
						c-0.084,0.072-0.174,0.108-0.27,0.108c-0.108,0-0.21-0.061-0.307-0.181l-0.432-0.558c-0.061-0.084-0.09-0.168-0.09-0.252
						c0-0.132,0.06-0.24,0.18-0.324l3.906-3.023c0.132-0.084,0.288-0.126,0.468-0.126h0.846c0.12,0,0.219,0.039,0.298,0.116
						c0.077,0.078,0.116,0.178,0.116,0.298v11.771c0,0.12-0.039,0.219-0.116,0.297c-0.079,0.078-0.178,0.117-0.298,0.117h-0.882
						C367.288,266.341,367.192,266.302,367.12,266.224z"/>
					<path fill="#E74C3C" d="M376.606,265.432c-0.72-0.726-1.098-1.743-1.134-3.051l-0.019-0.72l0.019-0.721
						c0.036-1.308,0.414-2.324,1.134-3.051c0.72-0.726,1.722-1.089,3.006-1.089c0.864,0,1.593,0.153,2.188,0.459
						c0.594,0.306,1.037,0.688,1.332,1.143c0.294,0.457,0.452,0.912,0.477,1.368c0.012,0.108-0.026,0.204-0.117,0.288
						c-0.09,0.084-0.188,0.126-0.297,0.126h-0.792c-0.12,0-0.21-0.026-0.27-0.081c-0.061-0.054-0.12-0.152-0.181-0.297
						c-0.216-0.588-0.513-1.005-0.891-1.251s-0.854-0.369-1.431-0.369c-0.756,0-1.356,0.234-1.801,0.702
						c-0.443,0.468-0.684,1.183-0.72,2.143l-0.018,0.63l0.018,0.63c0.036,0.96,0.276,1.674,0.72,2.142
						c0.444,0.468,1.045,0.702,1.801,0.702c0.588,0,1.067-0.123,1.439-0.369s0.666-0.663,0.882-1.251
						c0.061-0.144,0.12-0.243,0.181-0.297c0.06-0.054,0.149-0.081,0.27-0.081h0.792c0.108,0,0.207,0.042,0.297,0.126
						c0.091,0.084,0.129,0.18,0.117,0.288c-0.024,0.444-0.183,0.895-0.477,1.35c-0.295,0.457-0.738,0.841-1.332,1.152
						c-0.595,0.312-1.323,0.468-2.188,0.468C378.328,266.521,377.326,266.158,376.606,265.432z"/>
					<path fill="#E74C3C" d="M385.885,266.224c-0.078-0.078-0.117-0.177-0.117-0.297v-8.532c0-0.119,0.039-0.219,0.117-0.297
						s0.177-0.117,0.297-0.117h0.756c0.12,0,0.217,0.039,0.288,0.117c0.072,0.078,0.108,0.178,0.108,0.297v0.612
						c0.648-0.804,1.523-1.206,2.628-1.206c1.32,0,2.256,0.552,2.808,1.656c0.288-0.504,0.699-0.906,1.233-1.206
						s1.131-0.45,1.791-0.45c0.983,0,1.788,0.336,2.412,1.008c0.624,0.673,0.936,1.645,0.936,2.916v5.202
						c0,0.12-0.039,0.219-0.116,0.297c-0.078,0.078-0.178,0.117-0.298,0.117h-0.773c-0.12,0-0.219-0.039-0.297-0.117
						s-0.117-0.177-0.117-0.297v-5.04c0-0.96-0.198-1.646-0.594-2.061c-0.396-0.414-0.918-0.621-1.566-0.621
						c-0.576,0-1.071,0.213-1.485,0.639c-0.413,0.426-0.62,1.107-0.62,2.043v5.04c0,0.12-0.039,0.219-0.117,0.297
						s-0.178,0.117-0.297,0.117h-0.792c-0.12,0-0.22-0.039-0.298-0.117s-0.116-0.177-0.116-0.297v-5.04
						c0-0.947-0.207-1.632-0.621-2.052s-0.927-0.63-1.539-0.63c-0.576,0-1.071,0.21-1.485,0.63s-0.621,1.098-0.621,2.034v5.058
						c0,0.12-0.039,0.219-0.117,0.297s-0.177,0.117-0.297,0.117h-0.792C386.062,266.341,385.963,266.302,385.885,266.224z"/>
				</g>
			</g>
		</g>
		<g id="MTEXT_33_">
			<g>
				<g>
					<path fill="#E74C3C" d="M496.371,411.224c-0.071-0.078-0.107-0.177-0.107-0.297v-10.152l-3.024,2.322
						c-0.084,0.072-0.174,0.108-0.27,0.108c-0.108,0-0.21-0.061-0.307-0.181l-0.432-0.558c-0.061-0.084-0.09-0.168-0.09-0.252
						c0-0.132,0.06-0.24,0.18-0.324l3.906-3.023c0.132-0.084,0.288-0.126,0.468-0.126h0.846c0.12,0,0.219,0.039,0.298,0.116
						c0.077,0.078,0.116,0.178,0.116,0.298v11.771c0,0.12-0.039,0.219-0.116,0.297c-0.079,0.078-0.178,0.117-0.298,0.117h-0.882
						C496.539,411.341,496.443,411.302,496.371,411.224z"/>
					<path fill="#E74C3C" d="M501.636,410.162c-0.714-0.906-1.095-2.091-1.143-3.556l-0.019-1.548l0.019-1.602
						c0.036-1.452,0.416-2.631,1.143-3.537c0.726-0.906,1.856-1.359,3.394-1.359c1.548,0,2.685,0.453,3.41,1.359
						c0.727,0.906,1.107,2.085,1.144,3.537c0.012,0.336,0.018,0.87,0.018,1.602c0,0.708-0.006,1.225-0.018,1.548
						c-0.048,1.465-0.43,2.649-1.144,3.556s-1.851,1.358-3.41,1.358C503.48,411.521,502.35,411.068,501.636,410.162z
						 M507.117,409.108c0.468-0.611,0.714-1.476,0.737-2.592c0.012-0.348,0.019-0.846,0.019-1.494c0-0.659-0.007-1.151-0.019-1.476
						c-0.023-1.104-0.272-1.965-0.747-2.583c-0.474-0.618-1.167-0.927-2.078-0.927c-0.912,0-1.603,0.309-2.07,0.927
						s-0.714,1.479-0.738,2.583l-0.018,1.476l0.018,1.494c0.024,1.116,0.271,1.98,0.738,2.592c0.468,0.612,1.158,0.918,2.07,0.918
						C505.953,410.026,506.648,409.721,507.117,409.108z"/>
					<path fill="#E74C3C" d="M511.833,401.882c-0.048-0.065-0.065-0.159-0.054-0.279l0.396-2.52
						c0.048-0.348,0.216-0.522,0.504-0.522h1.151c0.084,0,0.153,0.03,0.207,0.09c0.055,0.061,0.081,0.133,0.081,0.217
						c0,0.12-0.018,0.216-0.054,0.288l-0.937,2.43c-0.06,0.132-0.126,0.231-0.197,0.297c-0.072,0.066-0.181,0.099-0.324,0.099
						h-0.558C511.953,401.98,511.881,401.948,511.833,401.882z"/>
					<path fill="#E74C3C" d="M520.707,414.968c-0.072-0.078-0.108-0.177-0.108-0.297v-19.044c0-0.12,0.036-0.219,0.108-0.297
						s0.168-0.117,0.288-0.117h0.666c0.12,0,0.219,0.039,0.297,0.117s0.117,0.177,0.117,0.297v19.044
						c0,0.12-0.039,0.219-0.117,0.297s-0.177,0.117-0.297,0.117h-0.666C520.875,415.085,520.779,415.046,520.707,414.968z"/>
					<path fill="#E74C3C" d="M530.732,411.062c-0.685-0.306-1.204-0.704-1.558-1.196s-0.543-1.002-0.566-1.53
						c0-0.108,0.035-0.195,0.107-0.261c0.072-0.066,0.162-0.1,0.271-0.1h0.81c0.132,0,0.24,0.027,0.324,0.081
						s0.149,0.159,0.198,0.315c0.155,0.611,0.494,1.044,1.017,1.296s1.137,0.378,1.845,0.378c0.864,0,1.551-0.207,2.062-0.621
						c0.51-0.414,0.765-1.005,0.765-1.773c0-1.464-0.894-2.195-2.682-2.195h-1.692c-0.12,0-0.219-0.039-0.297-0.117
						s-0.117-0.177-0.117-0.297v-0.468c0-0.181,0.066-0.336,0.198-0.469l3.51-3.888h-5.328c-0.12,0-0.219-0.036-0.297-0.108
						c-0.078-0.071-0.117-0.168-0.117-0.287v-0.648c0-0.132,0.039-0.237,0.117-0.315c0.078-0.077,0.177-0.116,0.297-0.116h7.128
						c0.132,0,0.237,0.039,0.315,0.116c0.078,0.078,0.117,0.184,0.117,0.315v0.594c0,0.133-0.061,0.271-0.181,0.414l-3.51,3.942
						h0.288c1.225,0.036,2.193,0.354,2.907,0.954c0.714,0.6,1.071,1.476,1.071,2.628c0,0.792-0.195,1.473-0.585,2.043
						c-0.391,0.57-0.934,1.008-1.63,1.313c-0.695,0.307-1.481,0.459-2.357,0.459C532.226,411.521,531.416,411.368,530.732,411.062z"
						/>
					<path fill="#E74C3C" d="M539.938,411.224c-0.078-0.078-0.117-0.177-0.117-0.297v-1.242c0-0.119,0.039-0.222,0.117-0.306
						s0.177-0.126,0.297-0.126h1.242c0.12,0,0.219,0.042,0.297,0.126s0.117,0.187,0.117,0.306v1.242c0,0.12-0.039,0.219-0.117,0.297
						s-0.177,0.117-0.297,0.117h-1.242C540.115,411.341,540.017,411.302,539.938,411.224z"/>
					<path fill="#E74C3C" d="M545.105,410.162c-0.714-0.906-1.095-2.091-1.143-3.556l-0.019-1.548l0.019-1.602
						c0.036-1.452,0.416-2.631,1.143-3.537c0.726-0.906,1.856-1.359,3.394-1.359c1.548,0,2.685,0.453,3.41,1.359
						c0.727,0.906,1.107,2.085,1.144,3.537c0.012,0.336,0.018,0.87,0.018,1.602c0,0.708-0.006,1.225-0.018,1.548
						c-0.048,1.465-0.43,2.649-1.144,3.556s-1.851,1.358-3.41,1.358C546.95,411.521,545.819,411.068,545.105,410.162z
						 M550.587,409.108c0.468-0.611,0.714-1.476,0.737-2.592c0.012-0.348,0.019-0.846,0.019-1.494c0-0.659-0.007-1.151-0.019-1.476
						c-0.023-1.104-0.272-1.965-0.747-2.583c-0.474-0.618-1.167-0.927-2.078-0.927c-0.912,0-1.603,0.309-2.07,0.927
						s-0.714,1.479-0.738,2.583l-0.018,1.476l0.018,1.494c0.024,1.116,0.271,1.98,0.738,2.592c0.468,0.612,1.158,0.918,2.07,0.918
						C549.423,410.026,550.118,409.721,550.587,409.108z"/>
					<path fill="#E74C3C" d="M557.103,411.035c-0.66-0.324-1.164-0.747-1.513-1.27c-0.348-0.521-0.534-1.083-0.558-1.683v-0.036
						c0-0.096,0.036-0.174,0.107-0.234c0.072-0.06,0.156-0.09,0.253-0.09h0.882c0.252,0,0.414,0.133,0.485,0.396
						c0.181,0.647,0.514,1.131,0.999,1.448c0.486,0.318,1.047,0.478,1.684,0.478c0.815,0,1.494-0.249,2.034-0.747
						c0.539-0.498,0.81-1.185,0.81-2.061c0-0.805-0.271-1.443-0.81-1.918c-0.54-0.474-1.219-0.711-2.034-0.711
						c-0.433,0-0.78,0.055-1.044,0.162c-0.265,0.108-0.534,0.265-0.811,0.469c-0.156,0.12-0.285,0.207-0.387,0.261
						c-0.103,0.054-0.213,0.081-0.333,0.081h-0.864c-0.107,0-0.204-0.039-0.288-0.117s-0.12-0.171-0.107-0.279l0.558-5.994
						c0.036-0.3,0.186-0.449,0.45-0.449h6.228c0.132,0,0.234,0.035,0.307,0.107c0.071,0.072,0.107,0.174,0.107,0.307v0.666
						c0,0.119-0.039,0.216-0.117,0.287c-0.078,0.072-0.177,0.108-0.297,0.108h-5.184l-0.324,3.618
						c0.576-0.408,1.351-0.612,2.322-0.612c0.804,0,1.536,0.159,2.196,0.478c0.659,0.317,1.185,0.782,1.574,1.395
						c0.391,0.612,0.585,1.338,0.585,2.178c0,0.889-0.194,1.653-0.585,2.295c-0.39,0.643-0.93,1.129-1.619,1.458
						c-0.69,0.33-1.479,0.495-2.367,0.495C558.542,411.521,557.762,411.358,557.103,411.035z"/>
					<path fill="#E74C3C" d="M570.755,411.224c-0.078-0.078-0.117-0.177-0.117-0.297v-8.532c0-0.119,0.039-0.219,0.117-0.297
						s0.177-0.117,0.297-0.117h0.756c0.12,0,0.217,0.039,0.288,0.117c0.072,0.078,0.108,0.178,0.108,0.297v0.612
						c0.648-0.804,1.523-1.206,2.628-1.206c1.32,0,2.256,0.552,2.808,1.656c0.288-0.504,0.699-0.906,1.233-1.206
						s1.131-0.45,1.791-0.45c0.983,0,1.788,0.336,2.412,1.008c0.624,0.673,0.936,1.645,0.936,2.916v5.202
						c0,0.12-0.039,0.219-0.116,0.297c-0.078,0.078-0.178,0.117-0.298,0.117h-0.773c-0.12,0-0.219-0.039-0.297-0.117
						s-0.117-0.177-0.117-0.297v-5.04c0-0.96-0.198-1.646-0.594-2.061c-0.396-0.414-0.918-0.621-1.566-0.621
						c-0.576,0-1.071,0.213-1.485,0.639c-0.413,0.426-0.62,1.107-0.62,2.043v5.04c0,0.12-0.039,0.219-0.117,0.297
						s-0.178,0.117-0.297,0.117h-0.792c-0.12,0-0.22-0.039-0.298-0.117s-0.116-0.177-0.116-0.297v-5.04
						c0-0.947-0.207-1.632-0.621-2.052s-0.927-0.63-1.539-0.63c-0.576,0-1.071,0.21-1.485,0.63s-0.621,1.098-0.621,2.034v5.058
						c0,0.12-0.039,0.219-0.117,0.297s-0.177,0.117-0.297,0.117h-0.792C570.932,411.341,570.833,411.302,570.755,411.224z"/>
					<path fill="#E74C3C" d="M493.852,427.79v-4.823h-1.422c-0.12,0-0.216-0.036-0.288-0.108s-0.108-0.168-0.108-0.288v-0.576
						c0-0.119,0.036-0.219,0.108-0.297s0.168-0.117,0.288-0.117h1.422v-3.006c0-0.119,0.036-0.219,0.107-0.297
						c0.072-0.078,0.168-0.117,0.288-0.117h0.792c0.12,0,0.219,0.039,0.297,0.117s0.117,0.178,0.117,0.297v3.006h2.232
						c0.12,0,0.219,0.039,0.297,0.117s0.117,0.178,0.117,0.297v0.576c0,0.12-0.039,0.216-0.117,0.288s-0.177,0.108-0.297,0.108
						h-2.232v4.697c0,0.612,0.1,1.074,0.297,1.387c0.198,0.312,0.537,0.468,1.018,0.468h1.098c0.12,0,0.216,0.039,0.288,0.117
						s0.108,0.177,0.108,0.297v0.594c0,0.12-0.036,0.219-0.108,0.297s-0.168,0.117-0.288,0.117h-1.224
						C494.781,430.94,493.852,429.891,493.852,427.79z"/>
					<path fill="#E74C3C" d="M500.771,430.005c-0.714-0.744-1.095-1.734-1.143-2.971l-0.019-0.773l0.019-0.774
						c0.048-1.235,0.435-2.226,1.161-2.97c0.726-0.744,1.736-1.116,3.033-1.116c1.296,0,2.307,0.372,3.032,1.116
						c0.727,0.744,1.113,1.734,1.161,2.97c0.024,0.265,0.036,0.522,0.036,0.774s-0.012,0.51-0.036,0.773
						c-0.048,1.236-0.429,2.227-1.143,2.971s-1.731,1.115-3.051,1.115C502.503,431.12,501.485,430.749,500.771,430.005z
						 M505.649,429.041c0.45-0.485,0.693-1.185,0.729-2.097c0.012-0.12,0.018-0.348,0.018-0.684s-0.006-0.564-0.018-0.685
						c-0.036-0.911-0.279-1.61-0.729-2.097c-0.449-0.486-1.059-0.729-1.826-0.729c-0.769,0-1.377,0.243-1.827,0.729
						s-0.693,1.186-0.729,2.097l-0.018,0.685l0.018,0.684c0.036,0.912,0.279,1.611,0.729,2.097c0.45,0.486,1.059,0.729,1.827,0.729
						C504.591,429.771,505.2,429.527,505.649,429.041z"/>
					<path fill="#E74C3C" d="M515.486,430.031c-0.72-0.726-1.098-1.743-1.134-3.051l-0.019-0.72l0.019-0.721
						c0.036-1.308,0.414-2.324,1.134-3.051c0.72-0.726,1.722-1.089,3.006-1.089c0.864,0,1.593,0.153,2.188,0.459
						c0.594,0.306,1.037,0.688,1.332,1.143c0.294,0.457,0.452,0.912,0.477,1.368c0.012,0.108-0.026,0.204-0.117,0.288
						c-0.09,0.084-0.188,0.126-0.297,0.126h-0.792c-0.12,0-0.21-0.026-0.27-0.081c-0.061-0.054-0.12-0.152-0.181-0.297
						c-0.216-0.588-0.513-1.005-0.891-1.251s-0.854-0.369-1.431-0.369c-0.756,0-1.356,0.234-1.801,0.702
						c-0.443,0.468-0.684,1.183-0.72,2.143l-0.018,0.63l0.018,0.63c0.036,0.96,0.276,1.674,0.72,2.142
						c0.444,0.468,1.045,0.702,1.801,0.702c0.588,0,1.067-0.123,1.439-0.369s0.666-0.663,0.882-1.251
						c0.061-0.144,0.12-0.243,0.181-0.297c0.06-0.054,0.149-0.081,0.27-0.081h0.792c0.108,0,0.207,0.042,0.297,0.126
						c0.091,0.084,0.129,0.18,0.117,0.288c-0.024,0.444-0.183,0.895-0.477,1.35c-0.295,0.457-0.738,0.841-1.332,1.152
						c-0.595,0.312-1.323,0.468-2.188,0.468C517.208,431.12,516.206,430.758,515.486,430.031z"/>
					<path fill="#E74C3C" d="M525.396,430.005c-0.714-0.744-1.095-1.734-1.143-2.971l-0.019-0.773l0.019-0.774
						c0.048-1.235,0.435-2.226,1.161-2.97c0.726-0.744,1.736-1.116,3.033-1.116c1.296,0,2.307,0.372,3.032,1.116
						c0.727,0.744,1.113,1.734,1.161,2.97c0.024,0.265,0.036,0.522,0.036,0.774s-0.012,0.51-0.036,0.773
						c-0.048,1.236-0.429,2.227-1.143,2.971s-1.731,1.115-3.051,1.115C527.127,431.12,526.109,430.749,525.396,430.005z
						 M530.273,429.041c0.45-0.485,0.693-1.185,0.729-2.097c0.012-0.12,0.018-0.348,0.018-0.684s-0.006-0.564-0.018-0.685
						c-0.036-0.911-0.279-1.61-0.729-2.097c-0.449-0.486-1.059-0.729-1.826-0.729c-0.769,0-1.377,0.243-1.827,0.729
						s-0.693,1.186-0.729,2.097l-0.018,0.685l0.018,0.684c0.036,0.912,0.279,1.611,0.729,2.097c0.45,0.486,1.059,0.729,1.827,0.729
						C529.215,429.771,529.824,429.527,530.273,429.041z"/>
					<path fill="#E74C3C" d="M535.791,430.014c-0.624-0.738-0.937-1.72-0.937-2.943v-5.076c0-0.119,0.039-0.219,0.117-0.297
						s0.177-0.117,0.297-0.117h0.828c0.12,0,0.219,0.039,0.297,0.117s0.117,0.178,0.117,0.297v4.986
						c0,1.824,0.792,2.736,2.376,2.736c0.768,0,1.377-0.243,1.827-0.729s0.675-1.154,0.675-2.007v-4.986
						c0-0.119,0.039-0.219,0.117-0.297s0.177-0.117,0.297-0.117h0.828c0.12,0,0.219,0.039,0.297,0.117s0.117,0.178,0.117,0.297
						v8.532c0,0.12-0.039,0.219-0.117,0.297s-0.177,0.117-0.297,0.117h-0.774c-0.12,0-0.219-0.039-0.297-0.117
						s-0.117-0.177-0.117-0.297v-0.81c-0.348,0.468-0.756,0.818-1.224,1.053s-1.062,0.351-1.782,0.351
						C537.297,431.12,536.414,430.751,535.791,430.014z"/>
					<path fill="#E74C3C" d="M545.861,430.823c-0.078-0.078-0.117-0.177-0.117-0.297v-8.514c0-0.12,0.039-0.223,0.117-0.307
						c0.078-0.083,0.177-0.126,0.297-0.126h0.756c0.133,0,0.237,0.039,0.315,0.117s0.117,0.184,0.117,0.315v0.792
						c0.492-0.816,1.325-1.225,2.502-1.225h0.702c0.132,0,0.233,0.036,0.306,0.108s0.108,0.174,0.108,0.306v0.666
						c0,0.12-0.036,0.22-0.108,0.297c-0.072,0.078-0.174,0.117-0.306,0.117h-1.026c-0.66,0-1.179,0.192-1.557,0.576
						s-0.567,0.906-0.567,1.566v5.31c0,0.12-0.042,0.219-0.126,0.297s-0.187,0.117-0.306,0.117h-0.811
						C546.038,430.94,545.939,430.901,545.861,430.823z"/>
					<path fill="#E74C3C" d="M553.322,427.79v-4.823H551.9c-0.12,0-0.216-0.036-0.288-0.108s-0.108-0.168-0.108-0.288v-0.576
						c0-0.119,0.036-0.219,0.108-0.297s0.168-0.117,0.288-0.117h1.422v-3.006c0-0.119,0.036-0.219,0.107-0.297
						c0.072-0.078,0.168-0.117,0.288-0.117h0.792c0.12,0,0.219,0.039,0.297,0.117s0.117,0.178,0.117,0.297v3.006h2.232
						c0.12,0,0.219,0.039,0.297,0.117s0.117,0.178,0.117,0.297v0.576c0,0.12-0.039,0.216-0.117,0.288s-0.177,0.108-0.297,0.108
						h-2.232v4.697c0,0.612,0.1,1.074,0.297,1.387c0.198,0.312,0.537,0.468,1.018,0.468h1.098c0.12,0,0.216,0.039,0.288,0.117
						s0.108,0.177,0.108,0.297v0.594c0,0.12-0.036,0.219-0.108,0.297s-0.168,0.117-0.288,0.117h-1.224
						C554.252,430.94,553.322,429.891,553.322,427.79z"/>
				</g>
			</g>
		</g>
	</g>
	<g>
		<g id="POLYLINE_415_">
			
				<line fill="none" stroke="#E74C3C" stroke-width="2" stroke-linecap="round" stroke-linejoin="round" stroke-miterlimit="10" x1="635.345" y1="517.029" x2="624" y2="517.029"/>
		</g>
		<g id="LINE_28_">
			
				<line fill="none" stroke="#E74C3C" stroke-width="2" stroke-linecap="round" stroke-linejoin="round" stroke-miterlimit="10" x1="627" y1="517.029" x2="611.844" y2="517.029"/>
		</g>
		<g id="POLYLINE_414_">
			
				<polyline fill="none" stroke="#E74C3C" stroke-width="2" stroke-linecap="round" stroke-linejoin="round" stroke-miterlimit="10" points="
				618.456,523.64 611.844,517.029 618.456,510.417 			"/>
		</g>
		<g id="POLYLINE_413_">
			
				<polyline fill="none" stroke="#E74C3C" stroke-width="2" stroke-linecap="round" stroke-linejoin="round" stroke-miterlimit="10" points="
				628.734,510.417 635.345,517.029 628.734,523.64 			"/>
		</g>
		<g id="MTEXT_32_">
			<g>
				<g>
					<path fill="#E74C3C" d="M586.59,546.062c-0.685-0.306-1.204-0.704-1.558-1.196s-0.543-1.002-0.566-1.53
						c0-0.108,0.035-0.195,0.107-0.261c0.072-0.066,0.162-0.1,0.271-0.1h0.81c0.132,0,0.24,0.027,0.324,0.081
						s0.149,0.159,0.198,0.315c0.155,0.611,0.494,1.044,1.017,1.296s1.137,0.378,1.845,0.378c0.864,0,1.551-0.207,2.062-0.621
						c0.51-0.414,0.765-1.005,0.765-1.773c0-1.464-0.894-2.195-2.682-2.195h-1.692c-0.12,0-0.219-0.039-0.297-0.117
						s-0.117-0.177-0.117-0.297v-0.468c0-0.181,0.066-0.336,0.198-0.469l3.51-3.888h-5.328c-0.12,0-0.219-0.036-0.297-0.108
						c-0.078-0.071-0.117-0.168-0.117-0.287v-0.648c0-0.132,0.039-0.237,0.117-0.315c0.078-0.077,0.177-0.116,0.297-0.116h7.128
						c0.132,0,0.237,0.039,0.315,0.116c0.078,0.078,0.117,0.184,0.117,0.315v0.594c0,0.133-0.061,0.271-0.181,0.414l-3.51,3.942
						h0.288c1.225,0.036,2.193,0.354,2.907,0.954c0.714,0.6,1.071,1.476,1.071,2.628c0,0.792-0.195,1.473-0.585,2.043
						c-0.391,0.57-0.934,1.008-1.63,1.313c-0.695,0.307-1.481,0.459-2.357,0.459C588.083,546.521,587.273,546.368,586.59,546.062z"
						/>
					<path fill="#E74C3C" d="M595.544,536.873c-0.054-0.072-0.069-0.162-0.045-0.271l0.396-2.52
						c0.048-0.348,0.216-0.522,0.504-0.522h1.151c0.084,0,0.153,0.03,0.207,0.09c0.055,0.061,0.081,0.133,0.081,0.217
						c0,0.12-0.018,0.216-0.054,0.288l-0.937,2.43c-0.06,0.132-0.126,0.231-0.197,0.297c-0.072,0.066-0.181,0.099-0.324,0.099
						h-0.558C595.673,536.98,595.598,536.944,595.544,536.873z M598.37,536.873c-0.054-0.072-0.069-0.162-0.045-0.271l0.396-2.52
						c0.048-0.348,0.217-0.522,0.504-0.522h1.152c0.084,0,0.153,0.03,0.207,0.09c0.054,0.061,0.081,0.133,0.081,0.217
						c0,0.12-0.018,0.216-0.054,0.288l-0.937,2.43c-0.06,0.132-0.126,0.231-0.197,0.297c-0.072,0.066-0.181,0.099-0.324,0.099
						h-0.559C598.499,536.98,598.424,536.944,598.37,536.873z"/>
					<path fill="#E74C3C" d="M607.253,549.968c-0.072-0.078-0.108-0.177-0.108-0.297v-19.044c0-0.12,0.036-0.219,0.108-0.297
						s0.168-0.117,0.288-0.117h0.666c0.12,0,0.219,0.039,0.297,0.117s0.117,0.177,0.117,0.297v19.044
						c0,0.12-0.039,0.219-0.117,0.297s-0.177,0.117-0.297,0.117h-0.666C607.421,550.085,607.325,550.046,607.253,549.968z"/>
					<path fill="#E74C3C" d="M616.819,546.224c-0.066-0.078-0.1-0.171-0.1-0.279l0.036-0.161l4.5-10.53h-5.94
						c-0.12,0-0.219-0.039-0.297-0.117s-0.116-0.177-0.116-0.297v-0.666c0-0.132,0.035-0.237,0.107-0.315
						c0.072-0.077,0.174-0.116,0.306-0.116h7.345c0.132,0,0.233,0.039,0.306,0.116c0.072,0.078,0.108,0.184,0.108,0.315v0.612
						c0,0.216-0.049,0.449-0.145,0.702l-4.446,10.403c-0.06,0.133-0.126,0.24-0.197,0.324c-0.072,0.084-0.175,0.126-0.307,0.126
						h-0.899C616.972,546.341,616.885,546.302,616.819,546.224z"/>
					<path fill="#E74C3C" d="M623.713,546.224c-0.078-0.078-0.117-0.177-0.117-0.297v-1.242c0-0.119,0.039-0.222,0.117-0.306
						s0.177-0.126,0.297-0.126h1.242c0.12,0,0.219,0.042,0.297,0.126s0.117,0.187,0.117,0.306v1.242c0,0.12-0.039,0.219-0.117,0.297
						s-0.177,0.117-0.297,0.117h-1.242C623.89,546.341,623.791,546.302,623.713,546.224z"/>
					<path fill="#E74C3C" d="M629.689,545.936c-0.702-0.39-1.236-0.915-1.603-1.575c-0.366-0.659-0.549-1.379-0.549-2.159
						c0-1.032,0.414-2.136,1.242-3.312l3.438-4.788c0.013-0.012,0.046-0.054,0.1-0.126s0.123-0.129,0.207-0.171
						s0.18-0.062,0.288-0.062h0.882c0.108,0,0.194,0.039,0.261,0.116c0.066,0.078,0.1,0.172,0.1,0.279
						c0,0.061-0.03,0.139-0.091,0.234l-2.628,3.672c0.312-0.072,0.66-0.108,1.044-0.108c0.876,0,1.647,0.195,2.313,0.585
						c0.666,0.391,1.182,0.906,1.548,1.548c0.366,0.643,0.549,1.348,0.549,2.115c0,0.769-0.183,1.485-0.549,2.151
						s-0.897,1.197-1.593,1.593c-0.696,0.396-1.519,0.594-2.466,0.594C631.222,546.521,630.392,546.326,629.689,545.936z
						 M633.622,544.703c0.444-0.216,0.798-0.537,1.062-0.963c0.264-0.426,0.396-0.939,0.396-1.539c0-0.588-0.135-1.096-0.405-1.521
						c-0.27-0.426-0.627-0.75-1.07-0.972c-0.444-0.222-0.925-0.333-1.44-0.333s-0.996,0.111-1.439,0.333
						c-0.444,0.222-0.799,0.546-1.062,0.972s-0.396,0.934-0.396,1.521c0,0.6,0.132,1.113,0.396,1.539s0.618,0.747,1.062,0.963
						c0.443,0.216,0.924,0.323,1.439,0.323C632.692,545.026,633.178,544.919,633.622,544.703z"/>
					<path fill="#E74C3C" d="M643.972,545.432c-0.72-0.726-1.098-1.743-1.134-3.051l-0.019-0.72l0.019-0.721
						c0.036-1.308,0.414-2.324,1.134-3.051c0.72-0.726,1.722-1.089,3.006-1.089c0.864,0,1.593,0.153,2.188,0.459
						c0.594,0.306,1.037,0.688,1.332,1.143c0.294,0.457,0.452,0.912,0.477,1.368c0.012,0.108-0.026,0.204-0.117,0.288
						c-0.09,0.084-0.188,0.126-0.297,0.126h-0.792c-0.12,0-0.21-0.026-0.27-0.081c-0.061-0.054-0.12-0.152-0.181-0.297
						c-0.216-0.588-0.513-1.005-0.891-1.251s-0.854-0.369-1.431-0.369c-0.756,0-1.356,0.234-1.801,0.702
						c-0.443,0.468-0.684,1.183-0.72,2.143l-0.018,0.63l0.018,0.63c0.036,0.96,0.276,1.674,0.72,2.142
						c0.444,0.468,1.045,0.702,1.801,0.702c0.588,0,1.067-0.123,1.439-0.369s0.666-0.663,0.882-1.251
						c0.061-0.144,0.12-0.243,0.181-0.297c0.06-0.054,0.149-0.081,0.27-0.081h0.792c0.108,0,0.207,0.042,0.297,0.126
						c0.091,0.084,0.129,0.18,0.117,0.288c-0.024,0.444-0.183,0.895-0.477,1.35c-0.295,0.457-0.738,0.841-1.332,1.152
						c-0.595,0.312-1.323,0.468-2.188,0.468C645.693,546.521,644.691,546.158,643.972,545.432z"/>
					<path fill="#E74C3C" d="M653.251,546.224c-0.078-0.078-0.117-0.177-0.117-0.297v-8.532c0-0.119,0.039-0.219,0.117-0.297
						s0.177-0.117,0.297-0.117h0.756c0.12,0,0.217,0.039,0.288,0.117c0.072,0.078,0.108,0.178,0.108,0.297v0.612
						c0.648-0.804,1.523-1.206,2.628-1.206c1.32,0,2.256,0.552,2.808,1.656c0.288-0.504,0.699-0.906,1.233-1.206
						s1.131-0.45,1.791-0.45c0.983,0,1.788,0.336,2.412,1.008c0.624,0.673,0.936,1.645,0.936,2.916v5.202
						c0,0.12-0.039,0.219-0.116,0.297c-0.078,0.078-0.178,0.117-0.298,0.117h-0.773c-0.12,0-0.219-0.039-0.297-0.117
						s-0.117-0.177-0.117-0.297v-5.04c0-0.96-0.198-1.646-0.594-2.061c-0.396-0.414-0.918-0.621-1.566-0.621
						c-0.576,0-1.071,0.213-1.485,0.639c-0.413,0.426-0.62,1.107-0.62,2.043v5.04c0,0.12-0.039,0.219-0.117,0.297
						s-0.178,0.117-0.297,0.117h-0.792c-0.12,0-0.22-0.039-0.298-0.117s-0.116-0.177-0.116-0.297v-5.04
						c0-0.947-0.207-1.632-0.621-2.052s-0.927-0.63-1.539-0.63c-0.576,0-1.071,0.21-1.485,0.63s-0.621,1.098-0.621,2.034v5.058
						c0,0.12-0.039,0.219-0.117,0.297s-0.177,0.117-0.297,0.117h-0.792C653.428,546.341,653.329,546.302,653.251,546.224z"/>
				</g>
			</g>
		</g>
	</g>
	<g>
		<g id="POLYLINE_412_">
			
				<line fill="none" stroke="#E74C3C" stroke-width="2" stroke-linecap="round" stroke-linejoin="round" stroke-miterlimit="10" x1="658.445" y1="497.38" x2="658.445" y2="430"/>
		</g>
		<g id="LINE_27_">
			
				<line fill="none" stroke="#E74C3C" stroke-width="2" stroke-linecap="round" stroke-linejoin="round" stroke-miterlimit="10" x1="658.445" y1="385" x2="658.445" y2="122.279"/>
		</g>
		<g id="POLYLINE_411_">
			
				<polyline fill="none" stroke="#E74C3C" stroke-width="2" stroke-linecap="round" stroke-linejoin="round" stroke-miterlimit="10" points="
				651.834,128.891 658.445,122.279 665.056,128.891 			"/>
		</g>
		<g id="POLYLINE_410_">
			
				<polyline fill="none" stroke="#E74C3C" stroke-width="2" stroke-linecap="round" stroke-linejoin="round" stroke-miterlimit="10" points="
				665.056,490.769 658.445,497.38 651.834,490.769 			"/>
		</g>
		<g id="MTEXT_31_">
			<g>
				<g>
					<path fill="#E74C3C" d="M658.672,404.659c-0.079-0.078-0.117-0.177-0.117-0.297v-2.628h-5.851c-0.12,0-0.219-0.039-0.297-0.117
						s-0.117-0.177-0.117-0.297v-0.666c0-0.168,0.066-0.348,0.198-0.54l5.418-7.632c0.061-0.096,0.15-0.171,0.271-0.225
						c0.119-0.055,0.252-0.081,0.396-0.081h1.225c0.132,0,0.233,0.035,0.306,0.107s0.107,0.174,0.107,0.307v7.632h1.639
						c0.119,0,0.219,0.039,0.297,0.117s0.117,0.177,0.117,0.297v0.684c0,0.12-0.039,0.219-0.117,0.297s-0.178,0.117-0.297,0.117
						h-1.639v2.628c0,0.12-0.039,0.219-0.116,0.297c-0.078,0.078-0.178,0.117-0.297,0.117h-0.828
						C658.849,404.776,658.749,404.737,658.672,404.659z M654.162,400.259h4.41v-6.265L654.162,400.259z"/>
					<path fill="#E74C3C" d="M666.123,404.497c-0.714-0.306-1.269-0.747-1.665-1.322c-0.396-0.576-0.594-1.248-0.594-2.017
						c0-0.708,0.177-1.329,0.531-1.863c0.354-0.533,0.831-0.944,1.431-1.232c-0.479-0.276-0.852-0.639-1.116-1.089
						c-0.264-0.45-0.396-0.981-0.396-1.594c0-1.044,0.39-1.868,1.17-2.475c0.78-0.605,1.806-0.909,3.078-0.909
						c1.271,0,2.295,0.301,3.069,0.9c0.773,0.6,1.16,1.428,1.16,2.483c0,0.601-0.132,1.125-0.396,1.575s-0.63,0.819-1.098,1.107
						c0.6,0.288,1.076,0.699,1.431,1.232c0.354,0.534,0.531,1.161,0.531,1.882c0,0.768-0.198,1.437-0.595,2.007
						c-0.396,0.57-0.951,1.008-1.665,1.313c-0.714,0.307-1.526,0.459-2.438,0.459S666.837,404.804,666.123,404.497z
						 M670.695,402.904c0.57-0.432,0.855-1.008,0.855-1.728c0-0.721-0.285-1.297-0.855-1.729s-1.281-0.647-2.133-0.647
						c-0.864,0-1.581,0.216-2.151,0.647c-0.569,0.432-0.854,1.008-0.854,1.729c0,0.72,0.285,1.296,0.854,1.728
						c0.57,0.432,1.287,0.648,2.151,0.648C669.414,403.553,670.125,403.336,670.695,402.904z M670.416,396.856
						c0.505-0.36,0.757-0.84,0.757-1.44c0-0.611-0.25-1.101-0.747-1.467c-0.498-0.366-1.119-0.549-1.863-0.549
						c-0.756,0-1.38,0.183-1.872,0.549s-0.738,0.855-0.738,1.467c0,0.612,0.246,1.102,0.738,1.468s1.116,0.549,1.872,0.549
						C669.294,397.408,669.912,397.217,670.416,396.856z"/>
					<path fill="#E74C3C" d="M675.357,395.309c-0.054-0.072-0.069-0.162-0.045-0.271l0.396-2.52
						c0.048-0.348,0.216-0.522,0.504-0.522h1.151c0.084,0,0.153,0.03,0.207,0.09c0.055,0.061,0.081,0.133,0.081,0.217
						c0,0.12-0.018,0.216-0.054,0.288l-0.937,2.43c-0.06,0.132-0.126,0.231-0.197,0.297c-0.072,0.066-0.181,0.099-0.324,0.099
						h-0.558C675.486,395.416,675.411,395.38,675.357,395.309z M678.184,395.309c-0.054-0.072-0.069-0.162-0.045-0.271l0.396-2.52
						c0.048-0.348,0.217-0.522,0.504-0.522h1.152c0.084,0,0.153,0.03,0.207,0.09c0.054,0.061,0.081,0.133,0.081,0.217
						c0,0.12-0.018,0.216-0.054,0.288l-0.937,2.43c-0.06,0.132-0.126,0.231-0.197,0.297c-0.072,0.066-0.181,0.099-0.324,0.099
						h-0.559C678.312,395.416,678.237,395.38,678.184,395.309z"/>
					<path fill="#E74C3C" d="M656.412,423.093c-0.071-0.078-0.107-0.177-0.107-0.297v-10.152l-3.024,2.322
						c-0.084,0.072-0.174,0.108-0.27,0.108c-0.108,0-0.21-0.061-0.307-0.181l-0.432-0.558c-0.061-0.084-0.09-0.168-0.09-0.252
						c0-0.132,0.06-0.24,0.18-0.324l3.906-3.023c0.132-0.084,0.288-0.126,0.468-0.126h0.846c0.12,0,0.219,0.039,0.298,0.116
						c0.077,0.078,0.116,0.178,0.116,0.298v11.771c0,0.12-0.039,0.219-0.116,0.297c-0.079,0.078-0.178,0.117-0.298,0.117H656.7
						C656.58,423.21,656.484,423.171,656.412,423.093z"/>
					<path fill="#E74C3C" d="M660.381,423.093c-0.078-0.078-0.117-0.177-0.117-0.297v-0.54c0-0.275,0.15-0.54,0.45-0.792
						l3.924-3.906c0.888-0.756,1.5-1.374,1.836-1.854s0.504-0.99,0.504-1.53c0-0.708-0.197-1.263-0.594-1.665
						c-0.396-0.401-0.972-0.603-1.728-0.603c-0.721,0-1.29,0.21-1.71,0.63c-0.421,0.42-0.679,0.984-0.774,1.691
						c-0.024,0.133-0.084,0.234-0.18,0.307c-0.097,0.072-0.192,0.107-0.288,0.107h-0.864c-0.108,0-0.198-0.035-0.27-0.107
						c-0.072-0.072-0.108-0.156-0.108-0.252c0.023-0.636,0.195-1.251,0.513-1.846c0.318-0.594,0.789-1.079,1.413-1.458
						c0.624-0.378,1.38-0.566,2.269-0.566c1.344,0,2.354,0.351,3.032,1.053s1.018,1.593,1.018,2.673
						c0,0.756-0.184,1.438-0.549,2.043c-0.366,0.606-0.939,1.245-1.72,1.917l-3.546,3.601h5.67c0.132,0,0.234,0.036,0.307,0.107
						c0.071,0.072,0.107,0.175,0.107,0.307v0.684c0,0.12-0.039,0.219-0.117,0.297s-0.177,0.117-0.297,0.117h-7.884
						C660.558,423.21,660.459,423.171,660.381,423.093z"/>
					<path fill="#E74C3C" d="M674.574,423.093c-0.071-0.078-0.107-0.177-0.107-0.297v-10.152l-3.024,2.322
						c-0.084,0.072-0.174,0.108-0.27,0.108c-0.108,0-0.21-0.061-0.307-0.181l-0.432-0.558c-0.061-0.084-0.09-0.168-0.09-0.252
						c0-0.132,0.06-0.24,0.18-0.324l3.906-3.023c0.132-0.084,0.288-0.126,0.468-0.126h0.846c0.12,0,0.219,0.039,0.298,0.116
						c0.077,0.078,0.116,0.178,0.116,0.298v11.771c0,0.12-0.039,0.219-0.116,0.297c-0.079,0.078-0.178,0.117-0.298,0.117h-0.882
						C674.742,423.21,674.646,423.171,674.574,423.093z"/>
					<path fill="#E74C3C" d="M678.885,423.093c-0.078-0.078-0.117-0.177-0.117-0.297v-1.242c0-0.119,0.039-0.222,0.117-0.306
						s0.177-0.126,0.297-0.126h1.242c0.12,0,0.219,0.042,0.297,0.126s0.117,0.187,0.117,0.306v1.242c0,0.12-0.039,0.219-0.117,0.297
						s-0.177,0.117-0.297,0.117h-1.242C679.062,423.21,678.963,423.171,678.885,423.093z"/>
					<path fill="#E74C3C" d="M684.466,423.093c-0.066-0.078-0.1-0.171-0.1-0.279c0-0.083,0.024-0.161,0.072-0.233l2.771-3.853
						c-0.287,0.072-0.624,0.108-1.008,0.108c-0.864-0.012-1.62-0.213-2.268-0.603c-0.648-0.391-1.144-0.9-1.485-1.53
						s-0.513-1.305-0.513-2.025c0-0.72,0.171-1.403,0.513-2.052s0.853-1.176,1.53-1.584s1.497-0.612,2.457-0.612
						s1.782,0.198,2.466,0.595c0.684,0.396,1.2,0.915,1.548,1.557s0.522,1.329,0.522,2.061c0,0.66-0.117,1.242-0.352,1.746
						c-0.233,0.504-0.543,1.026-0.927,1.566l-3.492,4.896c-0.084,0.108-0.165,0.195-0.243,0.262
						c-0.078,0.065-0.188,0.099-0.333,0.099h-0.899C684.618,423.21,684.531,423.171,684.466,423.093z M687.858,417.072
						c0.432-0.229,0.774-0.549,1.026-0.963s0.378-0.892,0.378-1.432c0-0.552-0.126-1.037-0.378-1.458
						c-0.252-0.42-0.595-0.744-1.026-0.972s-0.906-0.342-1.422-0.342c-0.504,0-0.97,0.114-1.396,0.342s-0.765,0.552-1.017,0.972
						c-0.252,0.421-0.378,0.906-0.378,1.458c0,0.54,0.126,1.018,0.378,1.432s0.588,0.734,1.008,0.963
						c0.42,0.228,0.888,0.342,1.404,0.342C686.952,417.414,687.427,417.3,687.858,417.072z"/>
					<path fill="#E74C3C" d="M698.388,422.301c-0.72-0.726-1.098-1.743-1.134-3.051l-0.019-0.72l0.019-0.721
						c0.036-1.308,0.414-2.324,1.134-3.051c0.72-0.726,1.722-1.089,3.006-1.089c0.864,0,1.593,0.153,2.188,0.459
						c0.594,0.306,1.037,0.688,1.332,1.143c0.294,0.457,0.452,0.912,0.477,1.368c0.012,0.108-0.026,0.204-0.117,0.288
						c-0.09,0.084-0.188,0.126-0.297,0.126h-0.792c-0.12,0-0.21-0.026-0.27-0.081c-0.061-0.054-0.12-0.152-0.181-0.297
						c-0.216-0.588-0.513-1.005-0.891-1.251s-0.854-0.369-1.431-0.369c-0.756,0-1.356,0.234-1.801,0.702
						c-0.443,0.468-0.684,1.183-0.72,2.143l-0.018,0.63l0.018,0.63c0.036,0.96,0.276,1.674,0.72,2.142
						c0.444,0.468,1.045,0.702,1.801,0.702c0.588,0,1.067-0.123,1.439-0.369s0.666-0.663,0.882-1.251
						c0.061-0.144,0.12-0.243,0.181-0.297c0.06-0.054,0.149-0.081,0.27-0.081h0.792c0.108,0,0.207,0.042,0.297,0.126
						c0.091,0.084,0.129,0.18,0.117,0.288c-0.024,0.444-0.183,0.895-0.477,1.35c-0.295,0.457-0.738,0.841-1.332,1.152
						c-0.595,0.312-1.323,0.468-2.188,0.468C700.109,423.39,699.107,423.027,698.388,422.301z"/>
					<path fill="#E74C3C" d="M707.666,423.093c-0.078-0.078-0.117-0.177-0.117-0.297v-8.532c0-0.119,0.039-0.219,0.117-0.297
						s0.177-0.117,0.297-0.117h0.756c0.12,0,0.217,0.039,0.288,0.117c0.072,0.078,0.108,0.178,0.108,0.297v0.612
						c0.648-0.804,1.523-1.206,2.628-1.206c1.32,0,2.256,0.552,2.808,1.656c0.288-0.504,0.699-0.906,1.233-1.206
						s1.131-0.45,1.791-0.45c0.983,0,1.788,0.336,2.412,1.008c0.624,0.673,0.936,1.645,0.936,2.916v5.202
						c0,0.12-0.039,0.219-0.116,0.297c-0.078,0.078-0.178,0.117-0.298,0.117h-0.773c-0.12,0-0.219-0.039-0.297-0.117
						s-0.117-0.177-0.117-0.297v-5.04c0-0.96-0.198-1.646-0.594-2.061c-0.396-0.414-0.918-0.621-1.566-0.621
						c-0.576,0-1.071,0.213-1.485,0.639c-0.413,0.426-0.62,1.107-0.62,2.043v5.04c0,0.12-0.039,0.219-0.117,0.297
						s-0.178,0.117-0.297,0.117h-0.792c-0.12,0-0.22-0.039-0.298-0.117s-0.116-0.177-0.116-0.297v-5.04
						c0-0.947-0.207-1.632-0.621-2.052s-0.927-0.63-1.539-0.63c-0.576,0-1.071,0.21-1.485,0.63s-0.621,1.098-0.621,2.034v5.058
						c0,0.12-0.039,0.219-0.117,0.297s-0.177,0.117-0.297,0.117h-0.792C707.843,423.21,707.744,423.171,707.666,423.093z"/>
				</g>
			</g>
		</g>
	</g>
	<g>
		<g id="POLYLINE_409_">
			
				<line fill="none" stroke="#E74C3C" stroke-width="2" stroke-linecap="round" stroke-linejoin="round" stroke-miterlimit="10" x1="466.445" y1="418.38" x2="466.445" y2="368"/>
		</g>
		<g id="LINE_26_">
			
				<line fill="none" stroke="#E74C3C" stroke-width="2" stroke-linecap="round" stroke-linejoin="round" stroke-miterlimit="10" x1="466.445" y1="323" x2="466.445" y2="279.279"/>
		</g>
		<g id="POLYLINE_408_">
			
				<polyline fill="none" stroke="#E74C3C" stroke-width="2" stroke-linecap="round" stroke-linejoin="round" stroke-miterlimit="10" points="
				459.834,285.891 466.445,279.279 473.056,285.891 			"/>
		</g>
		<g id="POLYLINE_407_">
			
				<polyline fill="none" stroke="#E74C3C" stroke-width="2" stroke-linecap="round" stroke-linejoin="round" stroke-miterlimit="10" points="
				473.056,411.769 466.445,418.38 459.834,411.769 			"/>
		</g>
		<g id="MTEXT_30_">
			<g>
				<g>
					<path fill="#E74C3C" d="M464.412,342.659c-0.071-0.078-0.107-0.177-0.107-0.297V332.21l-3.024,2.322
						c-0.084,0.072-0.174,0.108-0.27,0.108c-0.108,0-0.21-0.061-0.307-0.181l-0.432-0.558c-0.061-0.084-0.09-0.168-0.09-0.252
						c0-0.132,0.06-0.24,0.18-0.324l3.906-3.023c0.132-0.084,0.288-0.126,0.468-0.126h0.846c0.12,0,0.219,0.039,0.298,0.116
						c0.077,0.078,0.116,0.178,0.116,0.298v11.771c0,0.12-0.039,0.219-0.116,0.297c-0.079,0.078-0.178,0.117-0.298,0.117H464.7
						C464.58,342.776,464.484,342.737,464.412,342.659z"/>
					<path fill="#E74C3C" d="M470.648,342.497c-0.714-0.306-1.269-0.747-1.665-1.322c-0.396-0.576-0.594-1.248-0.594-2.017
						c0-0.708,0.177-1.329,0.531-1.863c0.354-0.533,0.831-0.944,1.431-1.232c-0.479-0.276-0.852-0.639-1.116-1.089
						c-0.264-0.45-0.396-0.981-0.396-1.594c0-1.044,0.39-1.868,1.17-2.475c0.78-0.605,1.806-0.909,3.078-0.909
						c1.271,0,2.295,0.301,3.069,0.9c0.773,0.6,1.16,1.428,1.16,2.483c0,0.601-0.132,1.125-0.396,1.575s-0.63,0.819-1.098,1.107
						c0.6,0.288,1.076,0.699,1.431,1.232c0.354,0.534,0.531,1.161,0.531,1.882c0,0.768-0.198,1.437-0.595,2.007
						c-0.396,0.57-0.951,1.008-1.665,1.313c-0.714,0.307-1.526,0.459-2.438,0.459S471.362,342.804,470.648,342.497z
						 M475.221,340.904c0.57-0.432,0.855-1.008,0.855-1.728c0-0.721-0.285-1.297-0.855-1.729s-1.281-0.647-2.133-0.647
						c-0.864,0-1.581,0.216-2.151,0.647c-0.569,0.432-0.854,1.008-0.854,1.729c0,0.72,0.285,1.296,0.854,1.728
						c0.57,0.432,1.287,0.648,2.151,0.648C473.939,341.553,474.65,341.336,475.221,340.904z M474.941,334.856
						c0.505-0.36,0.757-0.84,0.757-1.44c0-0.611-0.25-1.101-0.747-1.467c-0.498-0.366-1.119-0.549-1.863-0.549
						c-0.756,0-1.38,0.183-1.872,0.549s-0.738,0.855-0.738,1.467c0,0.612,0.246,1.102,0.738,1.468s1.116,0.549,1.872,0.549
						C473.819,335.408,474.438,335.217,474.941,334.856z"/>
					<path fill="#E74C3C" d="M479.883,333.309c-0.054-0.072-0.069-0.162-0.045-0.271l0.396-2.52
						c0.048-0.348,0.216-0.522,0.504-0.522h1.151c0.084,0,0.153,0.03,0.207,0.09c0.055,0.061,0.081,0.133,0.081,0.217
						c0,0.12-0.018,0.216-0.054,0.288l-0.937,2.43c-0.06,0.132-0.126,0.231-0.197,0.297c-0.072,0.066-0.181,0.099-0.324,0.099
						h-0.558C480.012,333.416,479.937,333.38,479.883,333.309z M482.709,333.309c-0.054-0.072-0.069-0.162-0.045-0.271l0.396-2.52
						c0.048-0.348,0.217-0.522,0.504-0.522h1.152c0.084,0,0.153,0.03,0.207,0.09c0.054,0.061,0.081,0.133,0.081,0.217
						c0,0.12-0.018,0.216-0.054,0.288l-0.937,2.43c-0.06,0.132-0.126,0.231-0.197,0.297c-0.072,0.066-0.181,0.099-0.324,0.099
						h-0.559C482.838,333.416,482.763,333.38,482.709,333.309z"/>
					<path fill="#E74C3C" d="M466.672,361.093c-0.079-0.078-0.117-0.177-0.117-0.297v-2.628h-5.851c-0.12,0-0.219-0.039-0.297-0.117
						s-0.117-0.177-0.117-0.297v-0.666c0-0.168,0.066-0.348,0.198-0.54l5.418-7.632c0.061-0.096,0.15-0.171,0.271-0.225
						c0.119-0.055,0.252-0.081,0.396-0.081h1.225c0.132,0,0.233,0.035,0.306,0.107s0.107,0.174,0.107,0.307v7.632h1.639
						c0.119,0,0.219,0.039,0.297,0.117s0.117,0.177,0.117,0.297v0.684c0,0.12-0.039,0.219-0.117,0.297s-0.178,0.117-0.297,0.117
						h-1.639v2.628c0,0.12-0.039,0.219-0.116,0.297c-0.078,0.078-0.178,0.117-0.297,0.117h-0.828
						C466.849,361.21,466.749,361.171,466.672,361.093z M462.162,356.692h4.41v-6.265L462.162,356.692z"/>
					<path fill="#E74C3C" d="M473.755,360.904c-0.66-0.324-1.164-0.747-1.513-1.27c-0.348-0.521-0.534-1.083-0.558-1.683v-0.036
						c0-0.096,0.036-0.174,0.107-0.234c0.072-0.06,0.156-0.09,0.253-0.09h0.882c0.252,0,0.414,0.133,0.485,0.396
						c0.181,0.647,0.514,1.131,0.999,1.448c0.486,0.318,1.047,0.478,1.684,0.478c0.815,0,1.494-0.249,2.034-0.747
						c0.539-0.498,0.81-1.185,0.81-2.061c0-0.805-0.271-1.443-0.81-1.918c-0.54-0.474-1.219-0.711-2.034-0.711
						c-0.433,0-0.78,0.055-1.044,0.162c-0.265,0.108-0.534,0.265-0.811,0.469c-0.156,0.12-0.285,0.207-0.387,0.261
						c-0.103,0.054-0.213,0.081-0.333,0.081h-0.864c-0.107,0-0.204-0.039-0.288-0.117s-0.12-0.171-0.107-0.279l0.558-5.994
						c0.036-0.3,0.186-0.449,0.45-0.449h6.228c0.132,0,0.234,0.035,0.307,0.107c0.071,0.072,0.107,0.174,0.107,0.307v0.666
						c0,0.119-0.039,0.216-0.117,0.287c-0.078,0.072-0.177,0.108-0.297,0.108h-5.184l-0.324,3.618
						c0.576-0.408,1.351-0.612,2.322-0.612c0.804,0,1.536,0.159,2.196,0.478c0.659,0.317,1.185,0.782,1.574,1.395
						c0.391,0.612,0.585,1.338,0.585,2.178c0,0.889-0.194,1.653-0.585,2.295c-0.39,0.643-0.93,1.129-1.619,1.458
						c-0.69,0.33-1.479,0.495-2.367,0.495C475.194,361.39,474.414,361.228,473.755,360.904z"/>
					<path fill="#E74C3C" d="M482.691,361.093c-0.078-0.078-0.117-0.177-0.117-0.297v-1.242c0-0.119,0.039-0.222,0.117-0.306
						s0.177-0.126,0.297-0.126h1.242c0.12,0,0.219,0.042,0.297,0.126s0.117,0.187,0.117,0.306v1.242c0,0.12-0.039,0.219-0.117,0.297
						s-0.177,0.117-0.297,0.117h-1.242C482.868,361.21,482.77,361.171,482.691,361.093z"/>
					<path fill="#E74C3C" d="M487.75,361.093c-0.066-0.078-0.1-0.171-0.1-0.279l0.036-0.161l4.5-10.53h-5.94
						c-0.12,0-0.219-0.039-0.297-0.117s-0.116-0.177-0.116-0.297v-0.666c0-0.132,0.035-0.237,0.107-0.315
						c0.072-0.077,0.174-0.116,0.306-0.116h7.345c0.132,0,0.233,0.039,0.306,0.116c0.072,0.078,0.108,0.184,0.108,0.315v0.612
						c0,0.216-0.049,0.449-0.145,0.702l-4.446,10.403c-0.06,0.133-0.126,0.24-0.197,0.324c-0.072,0.084-0.175,0.126-0.307,0.126
						h-0.899C487.902,361.21,487.815,361.171,487.75,361.093z"/>
					<path fill="#E74C3C" d="M501.006,360.301c-0.72-0.726-1.098-1.743-1.134-3.051l-0.019-0.72l0.019-0.721
						c0.036-1.308,0.414-2.324,1.134-3.051c0.72-0.726,1.722-1.089,3.006-1.089c0.864,0,1.593,0.153,2.188,0.459
						c0.594,0.306,1.037,0.688,1.332,1.143c0.294,0.457,0.452,0.912,0.477,1.368c0.012,0.108-0.026,0.204-0.117,0.288
						c-0.09,0.084-0.188,0.126-0.297,0.126h-0.792c-0.12,0-0.21-0.026-0.27-0.081c-0.061-0.054-0.12-0.152-0.181-0.297
						c-0.216-0.588-0.513-1.005-0.891-1.251s-0.854-0.369-1.431-0.369c-0.756,0-1.356,0.234-1.801,0.702
						c-0.443,0.468-0.684,1.183-0.72,2.143l-0.018,0.63l0.018,0.63c0.036,0.96,0.276,1.674,0.72,2.142
						c0.444,0.468,1.045,0.702,1.801,0.702c0.588,0,1.067-0.123,1.439-0.369s0.666-0.663,0.882-1.251
						c0.061-0.144,0.12-0.243,0.181-0.297c0.06-0.054,0.149-0.081,0.27-0.081h0.792c0.108,0,0.207,0.042,0.297,0.126
						c0.091,0.084,0.129,0.18,0.117,0.288c-0.024,0.444-0.183,0.895-0.477,1.35c-0.295,0.457-0.738,0.841-1.332,1.152
						c-0.595,0.312-1.323,0.468-2.188,0.468C502.728,361.39,501.726,361.027,501.006,360.301z"/>
					<path fill="#E74C3C" d="M510.285,361.093c-0.078-0.078-0.117-0.177-0.117-0.297v-8.532c0-0.119,0.039-0.219,0.117-0.297
						s0.177-0.117,0.297-0.117h0.756c0.12,0,0.217,0.039,0.288,0.117c0.072,0.078,0.108,0.178,0.108,0.297v0.612
						c0.648-0.804,1.523-1.206,2.628-1.206c1.32,0,2.256,0.552,2.808,1.656c0.288-0.504,0.699-0.906,1.233-1.206
						s1.131-0.45,1.791-0.45c0.983,0,1.788,0.336,2.412,1.008c0.624,0.673,0.936,1.645,0.936,2.916v5.202
						c0,0.12-0.039,0.219-0.116,0.297c-0.078,0.078-0.178,0.117-0.298,0.117h-0.773c-0.12,0-0.219-0.039-0.297-0.117
						s-0.117-0.177-0.117-0.297v-5.04c0-0.96-0.198-1.646-0.594-2.061c-0.396-0.414-0.918-0.621-1.566-0.621
						c-0.576,0-1.071,0.213-1.485,0.639c-0.413,0.426-0.62,1.107-0.62,2.043v5.04c0,0.12-0.039,0.219-0.117,0.297
						s-0.178,0.117-0.297,0.117h-0.792c-0.12,0-0.22-0.039-0.298-0.117s-0.116-0.177-0.116-0.297v-5.04
						c0-0.947-0.207-1.632-0.621-2.052s-0.927-0.63-1.539-0.63c-0.576,0-1.071,0.21-1.485,0.63s-0.621,1.098-0.621,2.034v5.058
						c0,0.12-0.039,0.219-0.117,0.297s-0.177,0.117-0.297,0.117h-0.792C510.462,361.21,510.363,361.171,510.285,361.093z"/>
				</g>
			</g>
		</g>
	</g>
	<g>
		<g id="POLYLINE_406_">
			
				<line fill="none" stroke="#E74C3C" stroke-width="2" stroke-linecap="round" stroke-linejoin="round" stroke-miterlimit="10" x1="244.445" y1="490.38" x2="244.445" y2="468"/>
		</g>
		<g id="LINE_19_">
			
				<line fill="none" stroke="#E74C3C" stroke-width="2" stroke-linecap="round" stroke-linejoin="round" stroke-miterlimit="10" x1="244.445" y1="423" x2="244.445" y2="404.279"/>
		</g>
		<g id="POLYLINE_405_">
			
				<polyline fill="none" stroke="#E74C3C" stroke-width="2" stroke-linecap="round" stroke-linejoin="round" stroke-miterlimit="10" points="
				237.834,410.891 244.445,404.279 251.056,410.891 			"/>
		</g>
		<g id="POLYLINE_404_">
			
				<polyline fill="none" stroke="#E74C3C" stroke-width="2" stroke-linecap="round" stroke-linejoin="round" stroke-miterlimit="10" points="
				251.056,483.769 244.445,490.38 237.834,483.769 			"/>
		</g>
		<g id="MTEXT_29_">
			<g>
				<g>
					<path fill="#E74C3C" d="M237.875,442.659c-0.071-0.078-0.107-0.177-0.107-0.297V432.21l-3.024,2.322
						c-0.084,0.072-0.174,0.108-0.27,0.108c-0.108,0-0.21-0.061-0.307-0.181l-0.432-0.558c-0.061-0.084-0.09-0.168-0.09-0.252
						c0-0.132,0.06-0.24,0.18-0.324l3.906-3.023c0.132-0.084,0.288-0.126,0.468-0.126h0.846c0.12,0,0.219,0.039,0.298,0.116
						c0.077,0.078,0.116,0.178,0.116,0.298v11.771c0,0.12-0.039,0.219-0.116,0.297c-0.079,0.078-0.178,0.117-0.298,0.117h-0.882
						C238.043,442.776,237.947,442.737,237.875,442.659z"/>
					<path fill="#E74C3C" d="M241.844,442.659c-0.078-0.078-0.117-0.177-0.117-0.297v-0.54c0-0.275,0.15-0.54,0.45-0.792
						l3.924-3.906c0.888-0.756,1.5-1.374,1.836-1.854s0.504-0.99,0.504-1.53c0-0.708-0.197-1.263-0.594-1.665
						c-0.396-0.401-0.972-0.603-1.728-0.603c-0.721,0-1.29,0.21-1.71,0.63c-0.421,0.42-0.679,0.984-0.774,1.691
						c-0.024,0.133-0.084,0.234-0.18,0.307c-0.097,0.072-0.192,0.107-0.288,0.107h-0.864c-0.108,0-0.198-0.035-0.27-0.107
						c-0.072-0.072-0.108-0.156-0.108-0.252c0.023-0.636,0.195-1.251,0.513-1.846c0.318-0.594,0.789-1.079,1.413-1.458
						c0.624-0.378,1.38-0.566,2.269-0.566c1.344,0,2.354,0.351,3.032,1.053s1.018,1.593,1.018,2.673
						c0,0.756-0.184,1.438-0.549,2.043c-0.366,0.606-0.939,1.245-1.72,1.917l-3.546,3.601h5.67c0.132,0,0.234,0.036,0.307,0.107
						c0.071,0.072,0.107,0.175,0.107,0.307v0.684c0,0.12-0.039,0.219-0.117,0.297s-0.177,0.117-0.297,0.117h-7.884
						C242.021,442.776,241.922,442.737,241.844,442.659z"/>
					<path fill="#E74C3C" d="M252.446,433.309c-0.054-0.072-0.069-0.162-0.045-0.271l0.396-2.52
						c0.048-0.348,0.216-0.522,0.504-0.522h1.151c0.084,0,0.153,0.03,0.207,0.09c0.055,0.061,0.081,0.133,0.081,0.217
						c0,0.12-0.018,0.216-0.054,0.288l-0.937,2.43c-0.06,0.132-0.126,0.231-0.197,0.297c-0.072,0.066-0.181,0.099-0.324,0.099
						h-0.558C252.575,433.416,252.5,433.38,252.446,433.309z M255.272,433.309c-0.054-0.072-0.069-0.162-0.045-0.271l0.396-2.52
						c0.048-0.348,0.217-0.522,0.504-0.522h1.152c0.084,0,0.153,0.03,0.207,0.09c0.054,0.061,0.081,0.133,0.081,0.217
						c0,0.12-0.018,0.216-0.054,0.288l-0.937,2.43c-0.06,0.132-0.126,0.231-0.197,0.297c-0.072,0.066-0.181,0.099-0.324,0.099
						h-0.559C255.401,433.416,255.326,433.38,255.272,433.309z"/>
					<path fill="#E74C3C" d="M214.962,460.931c-0.685-0.306-1.204-0.704-1.558-1.196s-0.543-1.002-0.566-1.53
						c0-0.108,0.035-0.195,0.107-0.261c0.072-0.066,0.162-0.1,0.271-0.1h0.81c0.132,0,0.24,0.027,0.324,0.081
						s0.149,0.159,0.198,0.315c0.155,0.611,0.494,1.044,1.017,1.296s1.137,0.378,1.845,0.378c0.864,0,1.551-0.207,2.062-0.621
						c0.51-0.414,0.765-1.005,0.765-1.773c0-1.464-0.894-2.195-2.682-2.195h-1.692c-0.12,0-0.219-0.039-0.297-0.117
						s-0.117-0.177-0.117-0.297v-0.468c0-0.181,0.066-0.336,0.198-0.469l3.51-3.888h-5.328c-0.12,0-0.219-0.036-0.297-0.108
						c-0.078-0.071-0.117-0.168-0.117-0.287v-0.648c0-0.132,0.039-0.237,0.117-0.315c0.078-0.077,0.177-0.116,0.297-0.116h7.128
						c0.132,0,0.237,0.039,0.315,0.116c0.078,0.078,0.117,0.184,0.117,0.315v0.594c0,0.133-0.061,0.271-0.181,0.414l-3.51,3.942
						h0.288c1.225,0.036,2.193,0.354,2.907,0.954c0.714,0.6,1.071,1.476,1.071,2.628c0,0.792-0.195,1.473-0.585,2.043
						c-0.391,0.57-0.934,1.008-1.63,1.313c-0.695,0.307-1.481,0.459-2.357,0.459C216.455,461.39,215.646,461.237,214.962,460.931z"
						/>
					<path fill="#E74C3C" d="M225.122,460.031c-0.714-0.906-1.095-2.091-1.143-3.556l-0.019-1.548l0.019-1.602
						c0.036-1.452,0.416-2.631,1.143-3.537c0.726-0.906,1.856-1.359,3.394-1.359c1.548,0,2.685,0.453,3.41,1.359
						c0.727,0.906,1.107,2.085,1.144,3.537c0.012,0.336,0.018,0.87,0.018,1.602c0,0.708-0.006,1.225-0.018,1.548
						c-0.048,1.465-0.43,2.649-1.144,3.556s-1.851,1.358-3.41,1.358C226.967,461.39,225.836,460.938,225.122,460.031z
						 M230.604,458.978c0.468-0.611,0.714-1.476,0.737-2.592c0.012-0.348,0.019-0.846,0.019-1.494c0-0.659-0.007-1.151-0.019-1.476
						c-0.023-1.104-0.272-1.965-0.747-2.583c-0.474-0.618-1.167-0.927-2.078-0.927c-0.912,0-1.603,0.309-2.07,0.927
						s-0.714,1.479-0.738,2.583l-0.018,1.476l0.018,1.494c0.024,1.116,0.271,1.98,0.738,2.592c0.468,0.612,1.158,0.918,2.07,0.918
						C229.439,459.896,230.135,459.59,230.604,458.978z"/>
					<path fill="#E74C3C" d="M235.274,461.093c-0.078-0.078-0.117-0.177-0.117-0.297v-1.242c0-0.119,0.039-0.222,0.117-0.306
						s0.177-0.126,0.297-0.126h1.242c0.12,0,0.219,0.042,0.297,0.126s0.117,0.187,0.117,0.306v1.242c0,0.12-0.039,0.219-0.117,0.297
						s-0.177,0.117-0.297,0.117h-1.242C235.451,461.21,235.353,461.171,235.274,461.093z"/>
					<path fill="#E74C3C" d="M241.332,460.904c-0.66-0.324-1.164-0.747-1.513-1.27c-0.348-0.521-0.534-1.083-0.558-1.683v-0.036
						c0-0.096,0.036-0.174,0.107-0.234c0.072-0.06,0.156-0.09,0.253-0.09h0.882c0.252,0,0.414,0.133,0.485,0.396
						c0.181,0.647,0.514,1.131,0.999,1.448c0.486,0.318,1.047,0.478,1.684,0.478c0.815,0,1.494-0.249,2.034-0.747
						c0.539-0.498,0.81-1.185,0.81-2.061c0-0.805-0.271-1.443-0.81-1.918c-0.54-0.474-1.219-0.711-2.034-0.711
						c-0.433,0-0.78,0.055-1.044,0.162c-0.265,0.108-0.534,0.265-0.811,0.469c-0.156,0.12-0.285,0.207-0.387,0.261
						c-0.103,0.054-0.213,0.081-0.333,0.081h-0.864c-0.107,0-0.204-0.039-0.288-0.117s-0.12-0.171-0.107-0.279l0.558-5.994
						c0.036-0.3,0.186-0.449,0.45-0.449h6.228c0.132,0,0.234,0.035,0.307,0.107c0.071,0.072,0.107,0.174,0.107,0.307v0.666
						c0,0.119-0.039,0.216-0.117,0.287c-0.078,0.072-0.177,0.108-0.297,0.108h-5.184l-0.324,3.618
						c0.576-0.408,1.351-0.612,2.322-0.612c0.804,0,1.536,0.159,2.196,0.478c0.659,0.317,1.185,0.782,1.574,1.395
						c0.391,0.612,0.585,1.338,0.585,2.178c0,0.889-0.194,1.653-0.585,2.295c-0.39,0.643-0.93,1.129-1.619,1.458
						c-0.69,0.33-1.479,0.495-2.367,0.495C242.771,461.39,241.991,461.228,241.332,460.904z"/>
					<path fill="#E74C3C" d="M255.605,460.301c-0.72-0.726-1.098-1.743-1.134-3.051l-0.019-0.72l0.019-0.721
						c0.036-1.308,0.414-2.324,1.134-3.051c0.72-0.726,1.722-1.089,3.006-1.089c0.864,0,1.593,0.153,2.188,0.459
						c0.594,0.306,1.037,0.688,1.332,1.143c0.294,0.457,0.452,0.912,0.477,1.368c0.012,0.108-0.026,0.204-0.117,0.288
						c-0.09,0.084-0.188,0.126-0.297,0.126h-0.792c-0.12,0-0.21-0.026-0.27-0.081c-0.061-0.054-0.12-0.152-0.181-0.297
						c-0.216-0.588-0.513-1.005-0.891-1.251s-0.854-0.369-1.431-0.369c-0.756,0-1.356,0.234-1.801,0.702
						c-0.443,0.468-0.684,1.183-0.72,2.143l-0.018,0.63l0.018,0.63c0.036,0.96,0.276,1.674,0.72,2.142
						c0.444,0.468,1.045,0.702,1.801,0.702c0.588,0,1.067-0.123,1.439-0.369s0.666-0.663,0.882-1.251
						c0.061-0.144,0.12-0.243,0.181-0.297c0.06-0.054,0.149-0.081,0.27-0.081h0.792c0.108,0,0.207,0.042,0.297,0.126
						c0.091,0.084,0.129,0.18,0.117,0.288c-0.024,0.444-0.183,0.895-0.477,1.35c-0.295,0.457-0.738,0.841-1.332,1.152
						c-0.595,0.312-1.323,0.468-2.188,0.468C257.327,461.39,256.325,461.027,255.605,460.301z"/>
					<path fill="#E74C3C" d="M264.884,461.093c-0.078-0.078-0.117-0.177-0.117-0.297v-8.532c0-0.119,0.039-0.219,0.117-0.297
						s0.177-0.117,0.297-0.117h0.756c0.12,0,0.217,0.039,0.288,0.117c0.072,0.078,0.108,0.178,0.108,0.297v0.612
						c0.648-0.804,1.523-1.206,2.628-1.206c1.32,0,2.256,0.552,2.808,1.656c0.288-0.504,0.699-0.906,1.233-1.206
						s1.131-0.45,1.791-0.45c0.983,0,1.788,0.336,2.412,1.008c0.624,0.673,0.936,1.645,0.936,2.916v5.202
						c0,0.12-0.039,0.219-0.116,0.297c-0.078,0.078-0.178,0.117-0.298,0.117h-0.773c-0.12,0-0.219-0.039-0.297-0.117
						s-0.117-0.177-0.117-0.297v-5.04c0-0.96-0.198-1.646-0.594-2.061c-0.396-0.414-0.918-0.621-1.566-0.621
						c-0.576,0-1.071,0.213-1.485,0.639c-0.413,0.426-0.62,1.107-0.62,2.043v5.04c0,0.12-0.039,0.219-0.117,0.297
						s-0.178,0.117-0.297,0.117h-0.792c-0.12,0-0.22-0.039-0.298-0.117s-0.116-0.177-0.116-0.297v-5.04
						c0-0.947-0.207-1.632-0.621-2.052s-0.927-0.63-1.539-0.63c-0.576,0-1.071,0.21-1.485,0.63s-0.621,1.098-0.621,2.034v5.058
						c0,0.12-0.039,0.219-0.117,0.297s-0.177,0.117-0.297,0.117h-0.792C265.061,461.21,264.962,461.171,264.884,461.093z"/>
				</g>
			</g>
		</g>
	</g>
	<g>
		<g>
			
				<line fill="none" stroke="#E74C3C" stroke-width="2" stroke-linecap="round" stroke-linejoin="round" x1="485" y1="404" x2="484" y2="404"/>
			
				<line fill="none" stroke="#E74C3C" stroke-width="2" stroke-linecap="round" stroke-linejoin="round" stroke-dasharray="1.9149,4.7872" x1="479.213" y1="404" x2="441.394" y2="404"/>
			
				<line fill="none" stroke="#E74C3C" stroke-width="2" stroke-linecap="round" stroke-linejoin="round" x1="439" y1="404" x2="438" y2="404"/>
		</g>
	</g>
</g>
<g id="N-TEXT">
</g>
<g id="AG-DIAGRAM">
</g>
<g id="AG-DETAIL">
	<g id="POLYLINE_403_">
		<path fill="none" stroke="#E74C3C" stroke-width="2" stroke-linecap="round" stroke-linejoin="round" stroke-miterlimit="10" d="
			M260.25,419.375c0-1.695,0-3.39,0-5.085c0-4.502,0-9.005,0-13.507c0-6.512,0-13.024,0-19.536c0-7.637,0-15.274,0-22.911
			c0-7.958,0-15.916,0-23.874c0-7.48,0-14.959,0-22.439c0-6.109,0-12.218,0-18.326c0-3.954,0-7.907,0-11.861
			c0-0.881-0.079-1.804,0-2.681c0.039-0.428-0.086-0.285,0.204-0.404c0.451-0.185,1.378,0,1.858,0c1.217,0,2.434,0,3.65,0
			c4.014,0,8.029,0,12.043,0c5.692,0,11.385,0,17.077,0c6.948,0,13.897,0,20.845,0c7.68,0,15.359,0,23.039,0
			c7.972,0,15.945,0,23.917,0c7.831,0,15.663,0,23.494,0c7.158,0,14.317,0,21.475,0c6.076,0,12.151,0,18.227,0
			c4.476,0,8.951,0,13.427,0c2.438,0,4.876,0,7.314,0c0.133,0,0.829-0.098,0.93,0.002c0.149,0.148,0,1.225,0,1.421
			c0,3.249,0,6.497,0,9.746c0,5.656,0,11.312,0,16.967c0,7.185,0,14.371,0,21.556c0,7.906,0,15.812,0,23.719
			c0,7.83,0,15.661,0,23.491c0,6.859,0,13.718,0,20.577c0,5.109,0,10.219,0,15.328c0,1.62,0,3.24,0,4.859
			c0,0.832,0.125,1.776,0,2.601c-0.065,0.431,0.096,0.242-0.236,0.357c-0.505,0.175-1.392,0-1.92,0c-3.026,0-6.052,0-9.077,0
			c-4.933,0-9.867,0-14.8,0c-6.412,0-12.825,0-19.237,0c-7.371,0-14.743,0-22.114,0c-7.889,0-15.778,0-23.667,0
			c-7.974,0-15.948,0-23.922,0c-7.526,0-15.052,0-22.577,0c-6.671,0-13.342,0-20.012,0c-5.294,0-10.587,0-15.881,0
			c-3.481,0-6.962,0-10.443,0C262.659,419.375,261.454,419.375,260.25,419.375z"/>
	</g>
	<g id="POLYLINE_402_">
		<path fill="none" stroke="#E74C3C" stroke-width="2" stroke-linecap="round" stroke-linejoin="round" stroke-miterlimit="10" d="
			M96.188,474.062c0-1.247,0-2.494,0-3.741c0-3.493,0-6.986,0-10.479c0-5.458,0-10.916,0-16.374c0-7.03,0-14.059,0-21.089
			c0-8.366,0-16.732,0-25.098c0-9.271,0-18.543,0-27.814c0-9.971,0-19.942,0-29.913c0-10.218,0-20.437,0-30.655
			c0-10.272,0-20.545,0-30.817c0-9.871,0-19.741,0-29.612c0-9.271,0-18.541,0-27.812c0-8.228,0-16.456,0-24.684
			c0-6.966,0-13.932,0-20.898c0-5.291,0-10.581,0-15.872c0-3.358,0-6.716,0-10.073c0-0.833,0-1.666,0-2.5
			c0-0.119-0.069-0.616,0.014-0.695c0.089-0.085,0.678,0,0.793,0c0.654,0,1.307,0,1.961,0c2.422,0,4.844,0,7.266,0
			c3.795,0,7.589,0,11.384,0c5.036,0,10.072,0,15.108,0c6.146,0,12.291,0,18.437,0c7.124,0,14.248,0,21.372,0
			c7.971,0,15.942,0,23.913,0c8.686,0,17.373,0,26.059,0c9.27,0,18.541,0,27.811,0c9.723,0,19.446,0,29.169,0
			c10.044,0,20.088,0,30.132,0c10.234,0,20.468,0,30.702,0c10.292,0,20.584,0,30.876,0c10.219,0,20.438,0,30.657,0
			c10.014,0,20.029,0,30.043,0c9.678,0,19.357,0,29.035,0c9.211,0,18.422,0,27.633,0c8.612,0,17.224,0,25.836,0
			c7.882,0,15.763,0,23.645,0c7.02,0,14.04,0,21.059,0c6.027,0,12.053,0,18.08,0c4.902,0,9.804,0,14.706,0c3.646,0,7.292,0,10.938,0
			c2.258,0,4.517,0,6.775,0c0.311,0,1.993-0.231,2.222,0.006c0.116,0.12,0,0.933,0,1.089c0,0.97,0,1.94,0,2.91
			c0,3.582,0,7.164,0,10.746c0,5.506,0,11.013,0,16.519c0,7.106,0,14.212,0,21.318c0,8.381,0,16.762,0,25.142
			c0,9.331,0,18.662,0,27.993c0,9.989,0,19.978,0,29.967c0,10.224,0,20.448,0,30.672c0,10.265,0,20.531,0,30.796
			c0,9.851,0,19.702,0,29.553c0,9.238,0,18.477,0,27.715c0,8.183,0,16.366,0,24.55c0,6.908,0,13.816,0,20.725
			c0,5.221,0,10.441,0,15.662c0,3.275,0,6.55,0,9.825c0,0.787,0,1.574,0,2.362c0,0.131,0.055,0.502-0.03,0.576
			c-0.11,0.096-0.74,0-0.878,0c-0.687,0-1.373,0-2.06,0c-2.468,0-4.935,0-7.403,0c-3.856,0-7.711,0-11.567,0
			c-5.063,0-10.126,0-15.19,0c-6.204,0-12.409,0-18.613,0c-7.135,0-14.27,0-21.404,0c-8.026,0-16.052,0-24.077,0
			c-8.682,0-17.365,0-26.047,0c-9.32,0-18.639,0-27.959,0c-9.706,0-19.412,0-29.118,0c-10.086,0-20.172,0-30.258,0
			c-10.205,0-20.411,0-30.616,0c-10.325,0-20.65,0-30.975,0c-10.181,0-20.361,0-30.542,0c-10.037,0-20.073,0-30.11,0
			c-9.632,0-19.264,0-28.896,0c-9.221,0-18.441,0-27.662,0c-8.559,0-17.119,0-25.678,0c-7.877,0-15.755,0-23.632,0
			c-6.963,0-13.925,0-20.888,0c-6.006,0-12.013,0-18.019,0c-4.842,0-9.684,0-14.526,0c-3.608,0-7.216,0-10.824,0
			c-2.197,0-4.394,0-6.591,0C97.562,474.062,96.875,474.062,96.188,474.062z"/>
	</g>
	<g id="POLYLINE_401_">
		<path fill="none" stroke="#E74C3C" stroke-width="2" stroke-linecap="round" stroke-linejoin="round" stroke-miterlimit="10" d="
			M275.875,403.75c0-5.193,0-10.386,0-15.58c0-11.672,0-23.343,0-35.015c0-12.233,0-24.466,0-36.7c0-7.084,0-14.168,0-21.252
			c0-1.005,0.003-0.829,1-0.829c2.068,0,4.135,0,6.203,0c8.592,0,17.185,0,25.777,0c12.121,0,24.242,0,36.362,0
			c12.708,0,25.416,0,38.124,0c10.56,0,21.12,0,31.68,0c5.457,0,10.913,0,16.37,0c0.104,0,0.655-0.078,0.734,0.002
			c0.129,0.131,0,1.042,0,1.212c0,2.723,0,5.445,0,8.168c0,10.582,0,21.163,0,31.745c0,12.68,0,25.36,0,38.04
			c0,8.877,0,17.754,0,26.632c0,0.929,0,1.857,0,2.786c0,0.142,0.078,0.703-0.022,0.791c-0.13,0.116-0.889,0-1.051,0
			c-0.822,0-1.643,0-2.465,0c-7.312,0-14.623,0-21.935,0c-11.469,0-22.937,0-34.406,0c-12.878,0-25.755,0-38.633,0
			c-11.357,0-22.714,0-34.071,0c-6.938,0-13.876,0-20.814,0C277.778,403.75,276.826,403.75,275.875,403.75z"/>
	</g>
</g>
<g id="AG-PEOPLE">
</g>
<g id="AG-SPORTS">
	<g id="POLYLINE_397_">
		
			<path fill="none" stroke="#E74C3C" stroke-width="2.75" stroke-linecap="round" stroke-linejoin="round" stroke-miterlimit="10" d="
			M72.75,497.5c0-1.345,0-2.69,0-4.035c0-3.806,0-7.612,0-11.418c0-5.884,0-11.769,0-17.653c0-7.69,0-15.38,0-23.07
			c0-9.125,0-18.249,0-27.374c0-10.154,0-20.308,0-30.462c0-10.961,0-21.923,0-32.884c0-11.369,0-22.738,0-34.107
			c0-11.368,0-22.736,0-34.103c0-11.158,0-22.316,0-33.475c0-10.539,0-21.078,0-31.618c0-9.525,0-19.05,0-28.575
			c0-8.281,0-16.562,0-24.843c0-6.635,0-13.271,0-19.906c0-4.626,0-9.252,0-13.878c0-2.33,0-4.66,0-6.989
			c0-0.852,0.203-0.61,1.047-0.61c1.969,0,3.939,0,5.908,0c3.6,0,7.2,0,10.801,0c5.072,0,10.144,0,15.216,0
			c6.351,0,12.701,0,19.052,0c7.552,0,15.104,0,22.656,0c8.567,0,17.135,0,25.702,0c9.373,0,18.746,0,28.119,0
			c10.137,0,20.274,0,30.411,0c10.696,0,21.391,0,32.087,0c11.037,0,22.073,0,33.11,0c11.355,0,22.71,0,34.065,0
			c11.457,0,22.915,0,34.372,0c11.374,0,22.749,0,34.123,0c11.173,0,22.347,0,33.52,0c10.852,0,21.705,0,32.557,0
			c10.317,0,20.633,0,30.95,0c9.662,0,19.324,0,28.985,0c8.88,0,17.761,0,26.641,0c7.896,0,15.792,0,23.688,0
			c6.787,0,13.575,0,20.362,0c5.542,0,11.084,0,16.625,0c4.112,0,8.225,0,12.337,0c2.55,0,5.1,0,7.65,0
			c0.347,0,2.26-0.259,2.514,0.007c0.128,0.134,0,1.022,0,1.196c0,1.045,0,2.091,0,3.136c0,3.878,0,7.755,0,11.633
			c0,5.992,0,11.984,0,17.976c0,7.73,0,15.461,0,23.191c0,9.144,0,18.287,0,27.431c0,10.248,0,20.496,0,30.744
			c0,10.952,0,21.904,0,32.856c0,11.344,0,22.689,0,34.033c0,11.43,0,22.86,0,34.289c0,11.108,0,22.216,0,33.324
			c0,10.48,0,20.96,0,31.439c0,9.538,0,19.075,0,28.613c0,8.199,0,16.398,0,24.597c0,6.55,0,13.1,0,19.65c0,4.571,0,9.142,0,13.714
			c0,2.225,0,4.45,0,6.675c0,0.778-0.423,0.496-1.168,0.496c-2.045,0-4.09,0-6.135,0c-3.65,0-7.301,0-10.951,0
			c-5.108,0-10.216,0-15.323,0c-6.435,0-12.869,0-19.304,0c-7.573,0-15.145,0-22.718,0c-8.576,0-17.153,0-25.729,0
			c-9.457,0-18.915,0-28.372,0c-10.132,0-20.264,0-30.397,0c-10.682,0-21.364,0-32.046,0c-11.114,0-22.227,0-33.341,0
			c-11.329,0-22.658,0-33.987,0c-11.425,0-22.85,0-34.275,0c-11.403,0-22.806,0-34.208,0c-11.163,0-22.326,0-33.489,0
			c-10.805,0-21.61,0-32.415,0c-10.325,0-20.651,0-30.976,0c-9.634,0-19.268,0-28.902,0c-8.822,0-17.645,0-26.467,0
			c-7.881,0-15.762,0-23.643,0c-6.742,0-13.485,0-20.227,0c-5.477,0-10.954,0-16.431,0c-4.07,0-8.14,0-12.21,0
			c-2.488,0-4.976,0-7.464,0C74.298,497.5,73.524,497.5,72.75,497.5z"/>
	</g>
	<g id="POLYLINE_396_">
		
			<path fill="none" stroke="#E74C3C" stroke-width="2.75" stroke-linecap="round" stroke-linejoin="round" stroke-miterlimit="10" d="
			M281.246,408.633c-1.997-0.001-3.151-2.378-1.922-3.947c0.951-1.214,2.608-0.936,3.964-0.936c3.604,0,7.208,0,10.812,0
			c5.935,0,11.87,0,17.806,0c7.443,0,14.886,0,22.33,0c8.153,0,16.305,0,24.458,0c7.962,0,15.923,0,23.885,0
			c6.996,0,13.992,0,20.988,0c5.139,0,10.279,0,15.418,0c2.482,0,4.964-0.015,7.445,0c1.561,0.009,2.992,1.085,2.738,2.798
			c-0.251,1.698-1.742,2.085-3.184,2.085c-2.904,0-5.808,0-8.712,0c-5.441,0-10.883,0-16.324,0c-7.152,0-14.304,0-21.456,0
			c-8.064,0-16.129,0-24.193,0c-8.109,0-16.218,0-24.326,0c-7.284,0-14.569,0-21.853,0c-5.661,0-11.323,0-16.984,0
			c-3.214,0-6.427,0-9.641,0C282.079,408.633,281.662,408.633,281.246,408.633z"/>
	</g>
	<g id="POLYLINE_394_">
		
			<path fill="none" stroke="#E74C3C" stroke-width="2.75" stroke-linecap="round" stroke-linejoin="round" stroke-miterlimit="10" d="
			M393.48,496.706c-1.674,5.321-3.357,10.641-5.204,15.905c-1.915,5.459-3.869,10.905-5.992,16.288
			c-1.252,3.175-2.534,6.336-3.83,9.494c-2.362-5.372-5.091-10.548-8.065-15.605c-2.879-4.895-6.024-9.641-9.332-14.256
			c-3.474-4.846-7.156-9.536-10.995-14.098c-3.725-4.426-7.616-8.717-11.655-12.858c-4.246-4.353-8.632-8.556-13.151-12.624
			c-1.076-0.968-2.166-1.923-3.259-2.873c-0.444-0.386-0.894-0.764-1.341-1.146c-0.518-0.442-1.621-1.053-1.944-1.657
			c-0.174-0.325-0.085-0.923-0.098-1.302c-0.035-1.029-0.071-2.057-0.106-3.086c-0.042-1.209-0.089-2.417-0.118-3.626
			c-0.145-6.023-0.279-12.047-0.203-18.073c0.073-5.823,0.228-11.667,0.9-17.456c0.308-2.651,0.681-5.376,1.578-7.902
			c0.364-1.024,0.887-2.351,1.871-2.945c2.733-1.649,5.205,4.406,5.881,5.888c2.379,5.22,4.038,10.766,5.684,16.25
			c1.737,5.785,3.28,11.624,4.813,17.465c0.718,2.734,1.381,5.483,2.067,8.225c0.449,1.795,0.898,3.591,1.347,5.386
			c0.08,0.321,0.106,0.827,0.278,1.113c0.338,0.561,1.148,1.062,1.632,1.506c4.274,3.914,8.395,8.01,12.304,12.289
			c3.862,4.227,7.518,8.662,10.8,13.357c3.259,4.663,6.117,9.563,8.682,14.639c2.676,5.297,5.24,10.652,7.406,16.18
			c1.071,2.734,2.068,5.496,3.013,8.275c0.421,1.237,0.837,2.475,1.238,3.719c0.531,1.646,1.22,3.323,1.595,5.01
			c0.258,1.163,0.037,2.597-0.042,3.787c-0.079,1.194-0.203,2.393-0.458,3.564c-0.236,1.08-0.583,2.364-1.449,3.123
			c-0.731,0.642-2.046,0.793-2.957,0.489c-1.255-0.418-2.02-2.146-2.565-3.199c-1.267-2.449-2.3-5.018-3.351-7.564
			c-1.209,3.057-2.408,6.33-4.358,9.009c-0.822,1.13-1.786,1.978-3.263,1.85c-1.959-0.169-3.258-2.961-4.116-4.385
			c-0.904-1.501-1.749-3.038-2.576-4.581c-0.433-0.808-1.226-1.494-0.758-2.33c3.415-6.093,6.83-12.187,10.245-18.28
			c5.425-9.681,10.851-19.361,16.276-29.042c3.27-5.834,6.539-11.668,9.809-17.502c0.05-0.089,0.099-0.177,0.149-0.266"/>
	</g>
	<g id="POLYLINE_393_">
		
			<path fill="none" stroke="#E74C3C" stroke-width="2.75" stroke-linecap="round" stroke-linejoin="round" stroke-miterlimit="10" d="
			M389.342,538.393c0.027-4.35,0.166-8.694,0.457-13.034c0.289-4.31,0.707-8.612,1.232-12.899c0.522-4.259,1.136-8.516,1.903-12.738
			c0.807-4.44,1.679-8.865,2.763-13.247c1.068-4.318,2.445-8.513,3.867-12.725c1.261-3.736,2.596-7.455,3.991-11.143
			c1.049-2.773,2.146-5.53,3.218-8.294c2.198-5.666,4.397-11.331,6.595-16.997c2.301-5.93,4.602-11.859,6.903-17.789
			c1.345-3.466,2.69-6.933,4.035-10.399c0.064-0.165,0.128-0.33,0.192-0.495"/>
	</g>
	<g id="POLYLINE_392_">
		
			<path fill="none" stroke="#E74C3C" stroke-width="2.75" stroke-linecap="round" stroke-linejoin="round" stroke-miterlimit="10" d="
			M318.658,538.393c-0.027-4.35-0.166-8.694-0.457-13.034c-0.289-4.31-0.707-8.612-1.232-12.899
			c-0.522-4.259-1.136-8.516-1.903-12.738c-0.807-4.44-1.679-8.865-2.763-13.247c-1.068-4.318-2.445-8.513-3.867-12.725
			c-1.261-3.736-2.596-7.455-3.991-11.143c-1.049-2.773-2.146-5.53-3.218-8.294c-2.198-5.666-4.397-11.331-6.595-16.997
			c-2.301-5.93-4.602-11.859-6.903-17.789c-1.345-3.466-2.69-6.933-4.035-10.399c-0.064-0.165-0.128-0.33-0.192-0.495"/>
	</g>
	<g id="POLYLINE_391_">
		
			<path fill="none" stroke="#E74C3C" stroke-width="2.75" stroke-linecap="round" stroke-linejoin="round" stroke-miterlimit="10" d="
			M314.52,496.706c2.295,7.295,4.655,14.569,7.275,21.755c1.356,3.719,2.734,7.429,4.186,11.112
			c0.732,1.857,1.468,3.711,2.226,5.558c0.246,0.601,0.493,1.201,0.739,1.802c0.157,0.384,0.537,0.966,0.57,1.389
			c0.048,0.625-0.589,1.578-0.844,2.182c-0.747,1.772-1.503,3.546-2.377,5.26c-0.492,0.965-1.012,2.029-1.79,2.807
			c-0.915,0.915-2.707,0.985-3.729,0.183c-1.396-1.094-1.665-3.477-1.856-5.079c-0.196-1.64-0.511-3.651-0.258-5.29
			c0.157-1.013,0.662-2.079,0.972-3.054c0.261-0.821,0.518-1.643,0.786-2.462c2.418-7.415,5.174-14.686,8.537-21.727
			c3.275-6.858,6.763-13.611,11.079-19.881c4.333-6.295,9.296-12.152,14.606-17.643c2.789-2.884,5.659-5.686,8.599-8.417
			c0.258-0.24,0.518-0.477,0.778-0.715c0.256-0.234,1.004-1.194,1.32-1.209c0.499-0.024,1.568,1.388,2.023,1.83
			c1.371,1.331,2.708,2.694,3.996,4.106c4.897,5.366,8.908,11.477,11.942,18.075c3.126,6.796,5.24,14.025,6.638,21.364
			c0.342,1.796,0.631,3.599,0.902,5.407"/>
	</g>
	<g id="POLYLINE_390_">
		
			<path fill="none" stroke="#E74C3C" stroke-width="2.75" stroke-linecap="round" stroke-linejoin="round" stroke-miterlimit="10" d="
			M395.034,489.258c-0.112-6.987-1.583-13.859-3.732-20.488c-0.604-1.865-1.274-3.704-1.96-5.54c-3.355,2.861-6.7,5.736-9.92,8.75
			c-3.478,3.256-6.884,6.577-10.211,9.988c-3.017,3.093-5.943,6.284-8.773,9.549c-2.964,3.421-5.859,6.901-8.623,10.486
			c-2.821,3.659-5.543,7.39-8.136,11.215c-2.447,3.61-4.773,7.307-6.959,11.082c-2.259,3.902-4.361,7.896-6.241,11.994
			c-0.232,0.506-0.457,1.014-0.681,1.523c-0.293,0.667-0.149,0.849,0.129,1.542c0.382,0.954,0.779,1.903,1.194,2.843
			c0.777,1.758,1.603,3.552,2.724,5.122c0.914,1.28,2.379,2.534,4.062,1.747c0.946-0.442,1.647-1.549,2.207-2.369
			c1.177-1.724,2.191-3.562,3.187-5.394c0.526-0.968,1.042-1.941,1.558-2.915c1.155,1.995,2.314,3.989,3.588,5.912
			c0.941,1.421,1.933,2.923,3.223,4.056c1.295,1.138,3.13,1.373,4.517,0.258c1.096-0.882,1.935-2.094,2.725-3.241
			c1.293-1.878,2.45-3.849,3.574-5.831c0.21-0.37,0.646-0.871,0.587-1.263c-0.075-0.499-0.728-1.209-0.987-1.639
			c-0.681-1.132-1.354-2.269-2.044-3.396c-1.124-1.833-2.257-3.665-3.422-5.473c-2.782-4.314-5.614-8.588-8.536-12.809
			c-2.662-3.846-5.406-7.638-8.221-11.373c-2.885-3.828-5.848-7.6-8.883-11.31c-3.186-3.894-6.445-7.722-9.769-11.5
			c-2.971-3.378-6.025-6.696-9.143-9.938c-1.797-1.868-3.597-3.727-5.423-5.566c-0.632-0.637-1.663-1.358-2.068-2.16
			c-0.44-0.872-0.587-2.057-0.854-2.993c-1.398-4.902-2.799-9.802-4.134-14.722c-1.301-4.795-2.583-9.591-3.776-14.414
			c-1.122-4.538-2.192-9.103-2.99-13.712c-0.138-0.795-1.735-9.082,0.324-8.609c0.953,0.219,1.822,1.728,2.302,2.436
			c1.263,1.864,2.326,3.865,3.362,5.861c2.124,4.094,4.048,8.296,5.918,12.51c1.873,4.22,3.678,8.469,5.44,12.736
			c1.921,4.651,3.823,9.306,5.685,13.981c0.619,1.554,1.238,3.108,1.857,4.662c0.253,0.636,0.925,1.669,0.943,2.366
			c0.012,0.471-0.441,1.192-0.604,1.634c-0.194,0.528-0.38,1.059-0.567,1.589c-0.36,1.018-0.7,2.044-1.025,3.074
			c-1.35,4.283-2.421,8.668-3.01,13.123c-0.291,2.197-0.447,4.402-0.482,6.618"/>
	</g>
	<g id="POLYLINE_150_">
		
			<path fill="none" stroke="#E74C3C" stroke-width="2.75" stroke-linecap="round" stroke-linejoin="round" stroke-miterlimit="10" d="
			M317.161,514.058c0.897-5.984,2.143-11.906,4.007-17.668c1.873-5.788,4.337-11.395,7.515-16.589
			c3.072-5.021,6.797-9.583,10.971-13.726c0.501-0.497,1.006-0.991,1.517-1.479c0.442-0.422,1.265-0.935,1.448-1.505
			c0.233-0.723,0.109-1.769,0.155-2.524c0.069-1.126,0.138-2.251,0.208-3.377c0.17-2.761,0.367-5.524,0.606-8.28
			c0.55-6.344,1.155-12.691,2.13-18.986c0.899-5.803,1.803-12.003,4.324-17.365c1.004-2.136,3.199-5.422,5.8-3.137
			c1.131,0.994,1.843,2.468,2.422,3.82c1.116,2.603,1.833,5.38,2.45,8.138c1.365,6.1,2.163,12.32,2.847,18.528
			c0.668,6.056,1.141,12.14,1.514,18.22c0.105,1.701,0.209,3.402,0.314,5.103c2.111-8.438,4.21-16.873,6.511-25.262
			c2.119-7.724,4.29-15.631,7.576-22.955c0.901-2.008,2.06-5.072,4.2-6.151c1.649-0.831,2.761,0.831,3.339,2.156
			c1.521,3.487,1.832,7.598,2.165,11.345c0.37,4.156,0.519,8.331,0.599,12.502c0.162,8.47-0.044,16.945-0.336,25.41
			c-0.034,0.985-0.068,1.97-0.102,2.955c2.786-6.992,5.58-13.975,8.453-20.932c2.67-6.464,5.439-12.885,8.401-19.221
			c1.477-3.159,3.01-6.299,4.733-9.332c0.728-1.282,1.491-2.572,2.412-3.727c0.364-0.457,0.916-1.231,1.528-1.353
			c1.716-0.342,0.861,4.864,0.782,5.495c-0.447,3.544-1.216,7.039-1.978,10.525c-1.55,7.089-3.465,14.095-5.365,21.097
			c-0.873,3.219-1.773,6.427-2.688,9.634c-0.657,2.303-1.314,4.606-1.971,6.909c-0.098,0.344-0.155,0.711-0.352,1
			c-0.581,0.848-1.57,1.581-2.293,2.309c-4.955,4.989-9.807,10.103-14.433,15.399c-5.005,5.73-9.867,11.561-14.578,17.536
			c-4.405,5.587-8.589,11.357-12.637,17.206c-4.009,5.791-7.881,11.686-11.538,17.706c-0.992,1.633-1.972,3.275-2.957,4.912
			c-1.215-2.168-2.431-4.337-3.646-6.505c-2.919-5.209-5.839-10.418-8.758-15.627c-3.534-6.305-7.067-12.61-10.601-18.915
			c-3.058-5.456-6.116-10.913-9.174-16.369c-1.494-2.666-2.988-5.332-4.483-7.998c-0.021-0.037-0.041-0.074-0.062-0.111"/>
	</g>
</g>
<g id="AG-OUTLINE">
	<g id="POLYLINE_149_">
		
			<path fill="none" stroke="#E74C3C" stroke-width="3.5" stroke-linecap="round" stroke-linejoin="round" stroke-miterlimit="10" d="
			M314.669,497.5c-1.878,0-3.756,0-5.634,0c-5.11,0-10.22,0-15.331,0c-7.681,0-15.362,0-23.043,0c-9.441,0-18.883,0-28.325,0
			c-10.594,0-21.187,0-31.781,0c-10.9,0-21.8,0-32.7,0c-10.616,0-21.231,0-31.847,0c-9.485,0-18.97,0-28.456,0
			c-7.747,0-15.494,0-23.241,0c-5.198,0-10.395,0-15.593,0c-1.439,0-2.879,0-4.318,0c-0.233,0-1.645,0-1.645,0l-0.006-0.828
			c0,0,0-1.754,0-2.631c0-3.426,0-6.853,0-10.279c0-5.401,0-10.802,0-16.204c0-7.076,0-14.152,0-21.228c0-8.451,0-16.902,0-25.353
			c0-9.526,0-19.052,0-28.578c0-10.301,0-20.602,0-30.903c0-10.776,0-21.552,0-32.328c0-10.951,0-21.902,0-32.854
			c0-10.794,0-21.588,0-32.382c0-10.434,0-20.868,0-31.301c0-9.649,0-19.297,0-28.946c0-8.68,0-17.359,0-26.039
			c0-7.307,0-14.614,0-21.921c0-5.722,0-11.444,0-17.166c0-3.769,0-7.538,0-11.307c0-1.079,0-2.158,0-3.237
			c0-0.256-0.162-1.232,0-1.446c0.187-0.247,1.529-0.068,1.869-0.068c2.211,0,4.422,0,6.633,0c3.655,0,7.31,0,10.964,0
			c5.009,0,10.019,0,15.028,0c6.17,0,12.34,0,18.511,0c7.272,0,14.545,0,21.817,0c8.154,0,16.307,0,24.461,0c9,0,18.001,0,27.001,0
			c9.605,0,19.211,0,28.816,0c10.162,0,20.324,0,30.486,0c10.557,0,21.114,0,31.67,0c10.818,0,21.636,0,32.455,0
			c10.946,0,21.893,0,32.839,0c10.941,0,21.882,0,32.823,0c10.802,0,21.605,0,32.407,0c10.53,0,21.061,0,31.591,0
			c10.125,0,20.25,0,30.375,0c9.558,0,19.116,0,28.674,0c8.942,0,17.885,0,26.827,0c8.085,0,16.171,0,24.256,0
			c7.193,0,14.386,0,21.579,0c6.081,0,12.162,0,18.243,0c4.909,0,9.818,0,14.727,0c3.544,0,7.089,0,10.633,0
			c2.089,0,4.179,0,6.268,0c0.463,0,1.371-0.188,1.545,0.173c0.184,0.382,0,1.321,0,1.736c0,1.17,0,2.339,0,3.509
			c0,3.932,0,7.863,0,11.795c0,5.862,0,11.724,0,17.585c0,7.422,0,14.844,0,22.266c0,8.772,0,17.544,0,26.316
			c0,9.716,0,19.433,0,29.149c0,10.446,0,20.892,0,31.338c0,10.847,0,21.694,0,32.541c0,10.948,0,21.896,0,32.845
			c0,10.749,0,21.499,0,32.248c0,10.251,0,20.501,0,30.752c0,9.452,0,18.904,0,28.356c0,8.353,0,16.707,0,25.06
			c0,6.955,0,13.909,0,20.864c0,5.256,0,10.512,0,15.768c0,3.258,0,6.515,0,9.773c0,0.453-0.071,2.926-0.071,2.926s-1.717,0-2.093,0
			c-1.573,0-3.145,0-4.718,0c-5.421,0-10.843,0-16.264,0c-7.915,0-15.831,0-23.746,0c-9.596,0-19.191,0-28.787,0
			c-10.67,0-21.339,0-32.009,0c-10.897,0-21.793,0-32.69,0c-10.533,0-21.067,0-31.6,0c-9.325,0-18.65,0-27.975,0
			c-7.507,0-15.013,0-22.52,0c-4.88,0-9.76,0-14.64,0c-1.602,0-3.204,0-4.806,0"/>
	</g>
	<g id="POLYLINE_138_">
		
			<path fill="none" stroke="#E74C3C" stroke-width="3.5" stroke-linecap="round" stroke-linejoin="round" stroke-miterlimit="10" d="
			M281.246,408.633c-3.176-0.018-3.127-4.728,0.009-4.883c2.114-0.104,4.259,0,6.375,0c5.351,0,10.702,0,16.052,0
			c7.525,0,15.05,0,22.575,0c8.648,0,17.296,0,25.943,0c8.719,0,17.438,0,26.157,0c7.764,0,15.529,0,23.293,0
			c5.697,0,11.394,0,17.091,0c2.607,0,5.222-0.057,7.829,0c2.547,0.055,3.755,3.537,1.166,4.676
			c-0.299,0.131-0.605,0.185-0.929,0.206c-0.293,0.019-0.593,0.001-0.887,0.001c-0.286,0-1.131-0.155-1.369,0
			c-0.187,0.122-0.282,0.587-0.371,0.815c-0.789,2.034-1.577,4.068-2.366,6.102c-2.89,7.454-5.779,14.907-8.669,22.361
			c-2.735,7.055-5.47,14.109-8.205,21.164c-1.432,3.695-2.832,7.394-4.145,11.133c-1.908,5.435-3.782,10.872-5.15,16.473
			c-1.352,5.54-2.456,11.143-3.344,16.776c-0.892,5.657-1.637,11.343-2.123,17.05c-0.506,5.942-0.791,11.881-0.838,17.844
			c-0.019,2.456-0.046,4.971-0.606,7.375c-0.245,1.052-0.61,2.303-1.49,3.009c-0.731,0.587-2.035,0.717-2.91,0.407
			c-1.257-0.445-2.023-2.201-2.571-3.266c-1.247-2.426-2.27-4.966-3.311-7.485c-0.916,2.315-1.856,4.632-3.03,6.831
			c-0.642,1.202-1.363,2.55-2.45,3.425c-2.396,1.929-4.356-0.788-5.538-2.623c-1.581-2.454-2.933-5.054-4.298-7.632
			c-1.378,2.43-2.757,4.868-4.354,7.164c-0.85,1.222-1.818,2.704-3.163,3.454c-2.438,1.359-4.561-1.087-5.858-2.821
			c-1.84-2.459-3.369-5.143-4.906-7.797c-1.219,2.301-2.433,4.609-3.794,6.831c-0.766,1.251-1.645,2.949-2.96,3.738
			c-2.361,1.417-4.229-1.429-5.189-3.117c-1.347-2.371-2.37-4.921-3.372-7.452c-1.091,2.643-2.155,5.32-3.499,7.848
			c-0.536,1.008-1.281,2.595-2.503,2.941c-2.702,0.764-3.907-1.619-4.359-3.829c-0.513-2.505-0.508-5.087-0.531-7.633
			c-0.026-2.926-0.087-5.851-0.241-8.773c-0.312-5.884-0.826-11.758-1.582-17.602c-0.748-5.78-1.659-11.54-2.823-17.251
			c-1.116-5.472-2.39-10.931-4.179-16.227c-1.647-4.875-3.27-9.77-5.131-14.568c-2.045-5.274-4.089-10.548-6.134-15.822
			c-3.134-8.085-6.269-16.169-9.403-24.254c-1.233-3.181-2.467-6.363-3.7-9.544c-0.407-1.049-0.814-2.099-1.22-3.148
			c-0.186-0.479-0.332-1.282-0.655-1.689C283.174,408.328,281.927,408.633,281.246,408.633z"/>
	</g>
</g>
</svg>
